<?xml version="1.0" encoding="utf-8" ?><svg xmlns="http://www.w3.org/2000/svg" xmlns:xlink="http://www.w3.org/1999/xlink" width="3910" height="2920" viewBox="0 0 3910 2920"><path fill="#51230D" transform="scale(1.62937 1.62937)" d="M1748.98 497.629C1757.01 475.533 1763.31 461.106 1780.35 444.589C1785.09 439.989 1771.88 413.522 1772.21 407.185C1768.92 385.445 1793.65 368.79 1785.02 354.037C1773.53 334.403 1764.74 331.762 1773.49 305.175C1779.43 288.242 1783.39 279.045 1775.27 261.728C1761.15 231.641 1734.05 191.108 1736.41 157.203C1737.84 136.539 1776.69 149.818 1787.05 154.142C1866.78 187.432 1928.29 266.054 1963.74 343.015C2004.21 435.26 2009.23 555.241 1970.67 649.04C1949.35 700.891 1913.05 757.768 1860.21 781.468C1864.06 851.262 1812.26 912.186 1746.54 930.37C1740.14 932.14 1732.22 932.685 1734.49 940.199C1735.99 948.957 1730.6 962.022 1724.72 968.452C1676.97 1016.99 1588.69 1040.26 1526.55 1058.28C1514.61 1097.82 1504.18 1122.58 1477.28 1155.11C1506.11 1153.86 1534.89 1151.7 1563.59 1148.62C1594.96 1145.25 1627.96 1139.71 1659.36 1142.38C1673.77 1143.23 1679.15 1154.58 1689.91 1161.54C1698.01 1166.78 1711.39 1170.23 1718.25 1177.98C1763.39 1228.97 1811.96 1289.77 1845.77 1348.46C1853.79 1362.38 1866.51 1422.99 1868.14 1437.35C1869.19 1456.13 1870.76 1470.06 1868.55 1489.03C1867.87 1501.87 1858.04 1589.99 1829.72 1575.31C1818.44 1569.47 1810.59 1520.92 1806.38 1505.82C1798.26 1476.63 1791 1444.8 1781.82 1415.02C1736.67 1387.16 1687.87 1301.34 1657.84 1255.78C1650.22 1256.55 1644.46 1257.33 1636.93 1258.71C1642.59 1263.7 1655.38 1273.48 1658.68 1279.89C1673.72 1309.09 1683.45 1343.42 1694.25 1374.49C1700.93 1393.74 1709.45 1414.66 1714.24 1434.24C1715.71 1440.24 1714.27 1458.14 1714.18 1464.79C1713.51 1514.78 1695.28 1569.63 1666.49 1610.41C1660.85 1617.69 1651.82 1628.59 1641.97 1629.26C1631.29 1629.99 1627.64 1622.9 1627.77 1613.45C1628.07 1592.07 1629.87 1570.67 1631.5 1549.38C1633.42 1525 1634.53 1500.56 1634.81 1476.1C1613.25 1458.44 1614.95 1446.32 1605.76 1423.19C1593.59 1392.55 1589.41 1369.61 1583.72 1337.57C1568.6 1334.75 1553.94 1332.3 1538.58 1331.25L1538.72 1332.16C1540.96 1346.07 1545.83 1356.06 1548.34 1368.83C1552.18 1394.08 1548.49 1419.37 1549.22 1445.12C1549.72 1462.67 1555.89 1496.48 1551.85 1511.96C1546.64 1531.87 1531.41 1559.89 1519.54 1577.33C1502.16 1602.86 1474.1 1636.91 1443.5 1645.94C1416.63 1652.76 1421.96 1625.72 1428.24 1610.7C1435.56 1593.21 1444.58 1562.47 1452.54 1546.64C1469.28 1513.3 1460.82 1523.4 1454.81 1499.42C1449.21 1477.06 1451.19 1419.89 1462.27 1398.16C1394.53 1376.36 1332.74 1339.24 1281.68 1289.68C1221.25 1309.08 1175.41 1313.11 1112.42 1309.2C1122.02 1328.3 1140.17 1397.47 1124.97 1412.18C1122.3 1414.74 1118.38 1415.51 1114.93 1414.15C1105.31 1410.3 1074.36 1376.47 1062 1368.3C1040.32 1353.95 1028.74 1364.7 1006.48 1357.38C997.615 1354.47 989.442 1340.16 979.366 1339.53C967.725 1338.79 956.001 1348.54 944.319 1345.69C931.177 1342.48 919.931 1327.12 905.317 1327.78C899.968 1328.02 880.362 1331.54 876.892 1334.96C878.256 1338.96 882.444 1342.09 884.902 1345.27C895.56 1359.04 909.64 1363.6 926.04 1366.94C944.949 1370.8 950.16 1383.16 958.074 1398.62C970.946 1421.4 991.202 1405.23 1010.55 1410.47C1028.84 1415.42 1037.02 1438.4 1054.16 1442.52C1084.56 1449.85 1117.37 1444.34 1147.72 1449.96C1164.83 1453.12 1146.6 1473.29 1141.55 1478.68C1119.26 1502.01 1092.28 1520.36 1062.39 1532.53C988.841 1563.23 900.495 1562.68 824.099 1543.32C793.021 1535.44 756.777 1521.6 726.911 1509.33L717.792 1520.03C720.842 1525.98 723.617 1532.06 726.109 1538.26C732.973 1555.54 763.211 1628.29 756.734 1641.46C755.545 1643.87 753.425 1645.53 750.812 1646.14C739.335 1648.84 725.262 1641.15 716.072 1634.9C681.287 1611.23 654.929 1570.55 638.434 1532.68C634.866 1524.48 629.802 1514.7 629.402 1505.68C628.628 1488.21 636.662 1460.91 633.979 1446.63C630.753 1444.41 630.533 1444.1 626.805 1443.29C623.96 1447.11 622.799 1452.51 620.584 1457.03C614.667 1469.1 606.156 1476.39 596.075 1484.78C593.967 1531.3 598.655 1578.95 595.028 1625.3C594.439 1632.83 584.167 1637.56 577.156 1634.29C563.526 1627.95 547.656 1604.66 541.828 1590.57C522.271 1543.27 512.784 1483.66 521.89 1433.22C525.897 1417.22 548.42 1372.31 555.8 1352.14C553.11 1344.41 549.379 1336.74 546.471 1328.52C534.186 1354.18 495.415 1404.38 469.549 1417.24C465.157 1439.79 457.944 1462.56 452.283 1484.9C445.796 1510.51 440.512 1536.75 432.872 1562C431.455 1566.69 429.692 1573.26 426.615 1577.15C425.167 1578.98 422.795 1579.69 420.559 1579.97C415.757 1580.57 411.449 1578.8 407.806 1575.73C391.015 1561.57 385.476 1517.8 383.402 1496.23C380.19 1462.82 383.192 1423.57 393.072 1391.35C394.458 1386.83 397.969 1383.73 399.306 1379.52C401.408 1372.91 400.189 1365.41 402.859 1358.87C416.891 1324.53 475.574 1248.94 500.958 1218.11C480.645 1148.08 490.872 1084.7 557.581 1045.35C559.043 1031.93 560.29 1013.59 572.545 1006.16C624.03 974.954 713.655 972.097 769.622 979.448C793.527 928.29 861.11 861.713 908.691 833.523C901.624 819.801 893.1 808.049 888.668 792.908C871.126 732.985 905.144 669.402 965.089 651.995C993.875 643.474 1024.87 646.809 1051.19 661.258C1085.03 680.264 1094.97 706.328 1104.75 741.071C1149.15 731.046 1174.02 731.113 1218.55 735.765C1225.64 694.919 1253.48 660.241 1295.01 651.163C1320.8 645.486 1347.78 650.285 1370.03 664.502C1392.53 678.777 1408.3 701.554 1413.73 727.643C1418.89 751.865 1414.88 777.14 1402.46 798.569C1398.11 806.005 1392.3 813.386 1387.41 820.802C1409.24 856.251 1430.17 864.554 1460.95 888.882C1474.92 899.921 1490.49 916.292 1502.55 929.425C1538.53 900.949 1564.21 857.336 1596.92 825.28C1607.55 814.861 1631.91 823.756 1633.99 815.461C1639.84 792.136 1644.42 772.109 1659.03 752.633C1645.01 734.601 1634.56 727.638 1621.52 704.636C1604.55 674.702 1593.41 632.147 1602.55 598.334C1579.27 555.262 1562.64 521.433 1556.73 471.414C1549.49 407.351 1560.94 335.79 1601.06 283.702C1607.87 274.871 1634.59 243.622 1647.14 253.543C1653.24 266.811 1649.57 308.979 1652.75 325.899C1653.34 329.043 1654.1 336.991 1654.4 340.346C1659.66 356.413 1669.14 356.732 1677.41 371.636C1686.37 387.772 1672.72 412.168 1689.31 420.268C1692.21 421.688 1696.88 423.481 1699.97 424.635C1716.17 435.938 1712 441.781 1714.52 459.104C1716.71 474.215 1735.69 487.859 1747.28 496.416C1747.84 496.832 1748.41 497.236 1748.98 497.629ZM718.947 1124.29C730.515 1124.98 739.916 1126.12 751.427 1127.66C766.937 1129.98 777.844 1132.02 793.131 1136.16C790 1130.6 776.238 1101.67 773.967 1099.95L772.231 1099.95C752.809 1106.03 735.901 1112.4 718.947 1124.29Z"/><path fill="#CF5B32" transform="scale(1.62937 1.62937)" d="M1079.14 799.79C1095.08 775.094 1128.65 771.654 1155.31 768.952C1197.55 764.671 1244.93 776.073 1282.12 796.744C1313.25 813.664 1348.44 836.211 1372.89 862.883C1375.88 866.146 1386.87 882.829 1388.28 883.608C1421.97 897.223 1467.04 935.419 1481.02 968.489C1481.6 969.876 1482.12 971.29 1482.57 972.725C1504.46 1026.91 1491.57 1067.66 1462.56 1115.37C1475.28 1070.24 1478.73 1048.93 1458.82 1005.23C1463.02 1067.1 1459.97 1113.24 1416.83 1163.58C1406.46 1175.68 1378.55 1201.6 1364.93 1209.42C1363.8 1210.49 1362.62 1211.5 1361.39 1212.46C1346.2 1224.24 1306.78 1243.08 1287.85 1251.05C1223.92 1277.94 1154.88 1279.92 1086.78 1271.16C1074.93 1258.27 1063.79 1245.38 1049.73 1234.83C1036.63 1225 1015.01 1213.63 1003.96 1202.47C968.715 1160.95 962.844 1144.32 939.182 1095.47C945.688 1134.91 960.356 1164.49 982.664 1196.91C968.846 1192.27 955.333 1188.38 941.348 1184.34C916.593 1149.57 905.288 1118.95 897.841 1077.24C897.094 1073.06 892.386 1048.28 891.366 1046.35C888.91 1051.08 890.761 1065.87 891.248 1071.73C894.401 1109.69 903.752 1148.28 923.942 1180.93C915.46 1179.86 899.52 1178.29 892.058 1176.25C884.277 1176.12 875.941 1175.43 868.132 1174.94C853.079 1163.51 847.369 1154.48 837.402 1138.8C810.687 1102.68 799.825 1059.38 798.995 1015.11C802.684 994.615 811.456 978.663 822.555 961.549C849.967 918.905 905.473 876.531 953.499 859.654C959.785 857.003 962.485 856.875 968.982 856.865C1026.06 860.316 1045.27 840.419 1079.14 799.79Z"/><path fill="#B04726" transform="scale(1.62937 1.62937)" d="M1382.35 1078.34L1383.65 1079.08C1384.28 1083.13 1382.13 1091.36 1381.13 1095.5C1373.74 1125.56 1360.57 1153.89 1342.35 1178.92C1338.46 1184.28 1332.48 1192.07 1328 1196.73C1332.69 1199.51 1334.1 1199.22 1339.66 1199.05C1335.01 1205.03 1330.39 1211.03 1325.81 1217.06C1343.82 1208.92 1349.02 1204.82 1364.99 1193.29C1356.62 1207.78 1348.92 1213.14 1334.58 1222.09C1331.6 1223.95 1326.49 1226.52 1324.48 1229.01L1325.04 1230.11C1330.14 1228.91 1332.17 1225.57 1335.9 1223.79C1346.19 1218.89 1353.67 1211.53 1364.93 1209.42C1363.8 1210.49 1362.62 1211.5 1361.39 1212.46C1346.2 1224.24 1306.78 1243.08 1287.85 1251.05C1223.92 1277.94 1154.88 1279.92 1086.78 1271.16C1074.93 1258.27 1063.79 1245.38 1049.73 1234.83C1036.63 1225 1015.01 1213.63 1003.96 1202.47C1063.22 1226.97 1095.6 1233.99 1160.8 1229.42C1237.89 1224.02 1294.66 1196.33 1342.36 1134.12C1354.8 1117.89 1368.99 1093.78 1381.69 1079.09L1382.35 1078.34Z"/><path fill="#51230D" transform="scale(1.62937 1.62937)" d="M1382.35 1078.34L1383.65 1079.08C1384.28 1083.13 1382.13 1091.36 1381.13 1095.5C1373.74 1125.56 1360.57 1153.89 1342.35 1178.92C1338.46 1184.28 1332.48 1192.07 1328 1196.73C1305.92 1218.63 1288.38 1231.97 1258.32 1240.89C1272.17 1227.7 1289.69 1213.03 1303.37 1200.02C1329.67 1175 1376.89 1114.82 1382.35 1078.34Z"/><path fill="#51230D" transform="scale(1.62937 1.62937)" d="M1429.17 1029.51C1436.24 1096.43 1417.03 1149.51 1364.99 1193.29C1349.02 1204.82 1343.82 1208.92 1325.81 1217.06C1330.39 1211.03 1335.01 1205.03 1339.66 1199.05C1379.07 1160.03 1408.01 1124.8 1421.91 1069.22C1425.09 1056.54 1427.05 1042.49 1429.17 1029.51Z"/><path fill="#F6E5D4" transform="scale(1.62937 1.62937)" d="M822.555 961.549C849.967 918.905 905.473 876.531 953.499 859.654C953.144 862.489 952.621 864.109 953.809 866.684C924.234 885.598 900.247 902.456 873.819 925.62C866.006 932.468 842.5 958.332 837.857 961.103C830.59 964.138 829.344 966.639 822.555 961.549Z"/><path fill="#F6E5D4" transform="scale(1.62937 1.62937)" d="M1079.14 799.79C1095.08 775.094 1128.65 771.654 1155.31 768.952C1197.55 764.671 1244.93 776.073 1282.12 796.744C1275.48 796.997 1251.61 788.571 1242.97 786.648C1226.59 783.003 1211.07 779.787 1194.04 779.13C1165.07 778.013 1136.61 782.75 1108.7 790.162C1101.16 792.163 1085.31 799.216 1079.14 799.79Z"/><path fill="#F3D8C2" transform="scale(1.62937 1.62937)" d="M1388.28 883.608C1421.97 897.223 1467.04 935.419 1481.02 968.489C1481.6 969.876 1482.12 971.29 1482.57 972.725C1482.04 972.836 1481.51 972.946 1480.98 973.057C1469.24 959.233 1460.66 943.838 1447.58 929.931C1437.5 919.214 1391.86 892.478 1388.28 883.608Z"/><path fill="#F3D8C2" transform="scale(1.62937 1.62937)" d="M822.555 961.549C829.344 966.639 830.59 964.138 837.857 961.103C827.002 974.488 816.183 987.509 808.351 1003C806.47 1006.72 803.441 1014.95 798.995 1015.11C802.684 994.615 811.456 978.663 822.555 961.549Z"/><path fill="#C25D32" transform="scale(1.62937 1.62937)" d="M837.402 1138.8C847.156 1146.41 853.034 1158.58 863.254 1164.97C871.591 1170.19 883.71 1170.24 892.058 1176.25C884.277 1176.12 875.941 1175.43 868.132 1174.94C853.079 1163.51 847.369 1154.48 837.402 1138.8Z"/><path fill="#F3D8C2" transform="scale(1.62937 1.62937)" d="M953.499 859.654C959.785 857.003 962.485 856.875 968.982 856.865C963.538 860.84 959.643 863.257 953.809 866.684C952.621 864.109 953.144 862.489 953.499 859.654Z"/><path fill="#51230D" transform="scale(1.62937 1.62937)" d="M994.223 881.857C1019.06 889.256 1062.36 913.15 1086.25 925.132C1146.16 955.19 1218.33 972.754 1280.28 937.274C1315.32 917.202 1329.69 903.011 1369.94 889.213C1322.15 931.903 1314.78 949.1 1296.61 1010.71C1287.06 1047.79 1281.65 1094.4 1258.32 1125.13C1228.29 1164.69 1183.96 1152.97 1147.14 1131.39C1084.13 1094.45 1051.99 1031.64 1029.72 964.614C1026 953.405 1022.63 942.302 1019.03 931.088C1012.25 912.248 1010.63 894.718 994.223 881.857Z"/><path fill="#C25D32" transform="scale(1.62937 1.62937)" d="M1132.99 1027.78C1184.2 1034.85 1205.34 1044.91 1234.15 1088.84C1238.13 1093.28 1241.25 1097.04 1244.93 1101.73C1231.97 1114.25 1217.77 1121.93 1199.28 1121.56C1189.3 1121.29 1179.54 1118.58 1170.85 1113.66C1131.57 1100.01 1105.67 1070.16 1083.96 1036.16C1138.82 1018.92 1139.35 1058.02 1173.17 1075.23L1174.48 1075.89C1158.31 1057.78 1153.11 1045.02 1132.99 1027.78Z"/><path fill="#B04726" transform="scale(1.62937 1.62937)" d="M1234.15 1088.84C1238.13 1093.28 1241.25 1097.04 1244.93 1101.73C1231.97 1114.25 1217.77 1121.93 1199.28 1121.56C1189.3 1121.29 1179.54 1118.58 1170.85 1113.66C1197.76 1117.73 1220.29 1114.86 1234.15 1088.84Z"/><path fill="#51230D" transform="scale(1.62937 1.62937)" d="M847.1 1008.64C848.42 1013.01 848.321 1018.79 848.327 1023.38C848.384 1066.87 862.958 1110.65 882.608 1149.08C884.964 1153.69 892.667 1164.17 891.322 1168.03L888.319 1168.52C880.99 1164.21 870.878 1150.38 866.513 1143.13C844.005 1105.75 836.535 1051.01 847.1 1008.64Z"/><path fill="#51230D" transform="scale(1.62937 1.62937)" d="M1240.17 1168.01C1240.92 1168.8 1240.74 1169.11 1241.09 1170.47C1240.71 1171.22 1239.96 1172.69 1239.32 1173.25C1213.91 1195.51 1183.96 1205.59 1156.26 1181.89C1153.32 1178.66 1149.87 1174.31 1147.02 1170.88C1182.56 1179.07 1205.19 1184.12 1240.17 1168.01Z"/><path fill="#51230D" transform="scale(1.62937 1.62937)" d="M1129.12 860.262C1146.19 867.869 1157.91 885.328 1146.52 903.216C1119.37 902.129 1123.48 878.516 1129.12 860.262Z"/><path fill="#51230D" transform="scale(1.62937 1.62937)" d="M1258.12 857.369C1276.9 862.046 1273 884.295 1265.59 897.238C1244.52 888.953 1250.95 873.254 1258.12 857.369Z"/><path fill="#51230D" transform="scale(1.62937 1.62937)" d="M1161.73 871.637C1171.17 875.626 1186 884.843 1189.97 894.558C1189.22 897.163 1190 896.327 1188.15 897.61C1179.7 900.746 1169 892.811 1168.26 883.884C1164.97 879.121 1164.07 876.895 1161.73 871.637Z"/><path fill="#C25D32" transform="scale(1.62937 1.62937)" d="M1188.15 897.61C1179.7 900.746 1169 892.811 1168.26 883.884C1175.96 891.575 1178.23 893.132 1188.15 897.61Z"/><path fill="#51230D" transform="scale(1.62937 1.62937)" d="M1206.76 872.423C1213.25 876.04 1241.89 892.795 1243.05 898.843C1240.74 901.979 1236.94 899.89 1233.98 898.67C1233.23 899.026 1231.85 899.374 1231.01 899.627C1224.87 897.867 1220.02 895.205 1219.29 888.347C1213.57 882.102 1211.4 879.45 1206.76 872.423Z"/><path fill="#C25D32" transform="scale(1.62937 1.62937)" d="M1219.29 888.347C1224.24 892.056 1228.66 895.494 1233.98 898.67C1233.23 899.026 1231.85 899.374 1231.01 899.627C1224.87 897.867 1220.02 895.205 1219.29 888.347Z"/><path fill="#51230D" transform="scale(1.62937 1.62937)" d="M1287.08 864.439C1288.24 864.857 1289.35 865.389 1290.4 866.026C1299.21 871.291 1296.46 880.357 1291.97 887.441C1279.27 882.147 1281.86 874.738 1287.08 864.439Z"/><path fill="#CF5B32" transform="scale(1.62937 1.62937)" d="M1762.2 173.114C1802.14 187.062 1830.85 210.671 1859.49 241.157C1865.98 248.061 1876.51 260.188 1881.4 268.014C1898.41 284.903 1908.94 304.5 1920.22 325.16C1951.77 382.943 1965.36 442.966 1965.55 508.782C1965.84 614.187 1912.01 764.655 1786.27 766.087C1757.86 766.394 1714.47 754.681 1691.88 736.728C1687.75 734.171 1686.29 733.025 1682.62 729.817C1678.52 726.426 1674.61 722.805 1670.92 718.97C1641.11 687.673 1630.05 651.505 1631.21 609.11C1637.06 608.762 1644.05 607.749 1649.97 607.04C1687.57 598.544 1718.87 581.536 1745.18 553.215C1751.78 546.116 1756.05 537.437 1763.34 530.732C1772.47 514.736 1775.79 498.328 1784.09 483.575C1790.96 471.355 1803.36 465.998 1806.64 449.013C1810.3 430.043 1799.05 416.961 1800.3 400.013C1800.88 392.199 1813.17 379.215 1815.72 370.511C1821.06 352.377 1808.05 343.568 1800.15 329.401C1794.02 318.393 1800.8 307.951 1804.02 297.076C1812.55 268.347 1799.31 246.661 1786.44 222.131C1777.09 206.902 1768.96 189.671 1762.2 173.114Z"/><path fill="#B04726" transform="scale(1.62937 1.62937)" d="M1881.4 268.014C1898.41 284.903 1908.94 304.5 1920.22 325.16C1951.77 382.943 1965.36 442.966 1965.55 508.782C1965.84 614.187 1912.01 764.655 1786.27 766.087C1757.86 766.394 1714.47 754.681 1691.88 736.728C1714.46 742.177 1729.9 745.638 1753.5 743.486C1819.46 737.471 1862.81 691.064 1889.17 634.011C1932.24 538.776 1938.58 430.976 1906.96 331.35C1902.24 316.049 1896.97 300.539 1889.56 286.319C1886.74 280.897 1883.88 274.956 1881.82 269.212L1881.4 268.014Z"/><path fill="#F6E5D4" transform="scale(1.62937 1.62937)" d="M1786.44 222.131C1792.35 224.136 1797.89 234.669 1800.27 240.045C1808.56 258.89 1818.78 278.135 1815.53 299.379C1814.73 304.592 1813.39 321.031 1815.19 325.333C1830.44 361.705 1847.11 358.167 1819.52 396.708C1826.34 445.626 1829.97 454.061 1794.55 492.443C1785.25 502.522 1777.68 524.929 1763.34 530.732C1772.47 514.736 1775.79 498.328 1784.09 483.575C1790.96 471.355 1803.36 465.998 1806.64 449.013C1810.3 430.043 1799.05 416.961 1800.3 400.013C1800.88 392.199 1813.17 379.215 1815.72 370.511C1821.06 352.377 1808.05 343.568 1800.15 329.401C1794.02 318.393 1800.8 307.951 1804.02 297.076C1812.55 268.347 1799.31 246.661 1786.44 222.131Z"/><path fill="#F6E5D4" transform="scale(1.62937 1.62937)" d="M1631.21 609.11C1637.06 608.762 1644.05 607.749 1649.97 607.04C1647.95 645.284 1654.74 682.013 1674.86 714.812C1676.71 717.821 1682.61 726.831 1682.62 729.817C1678.52 726.426 1674.61 722.805 1670.92 718.97C1641.11 687.673 1630.05 651.505 1631.21 609.11Z"/><path fill="#CF5B32" transform="scale(1.62937 1.62937)" d="M610.124 1187.25C673.375 1136.56 768.115 1149.08 833.51 1189.22C830.502 1195.22 826.464 1202.72 824.153 1208.86C811.045 1251.82 817.381 1277.36 836.355 1317.73C859.39 1359.94 878.13 1385.66 927.305 1392.66C934.199 1409.23 940.095 1424.01 958.086 1431.43C973.408 1437.75 989.002 1433.93 1004.95 1433.95C1021.1 1453.35 1027.87 1460.06 1052.84 1466.61C1067.85 1469.01 1086.17 1470.21 1101.34 1470.96C1103.92 1470 1106.07 1469.48 1108.51 1470.28C1108.14 1477.48 1088.6 1488.35 1082.52 1491.92C1042.37 1515.48 995.902 1525.53 949.713 1527.11C835.701 1531.28 724.707 1489.96 641.182 1412.24C604.864 1378.22 568.493 1326.86 567.198 1275.8C566.544 1247.34 577.068 1219.76 596.513 1198.97C601.87 1193.59 603.992 1191.7 610.124 1187.25Z"/><path fill="#B04726" transform="scale(1.62937 1.62937)" d="M1101.34 1470.96C1103.92 1470 1106.07 1469.48 1108.51 1470.28C1108.14 1477.48 1088.6 1488.35 1082.52 1491.92C1042.37 1515.48 995.902 1525.53 949.713 1527.11C835.701 1531.28 724.707 1489.96 641.182 1412.24C604.864 1378.22 568.493 1326.86 567.198 1275.8C566.544 1247.34 577.068 1219.76 596.513 1198.97C562.897 1345.96 759.757 1454.75 878.569 1480.58C940.117 1493.96 1003 1499.99 1064.72 1484.18C1073.04 1482.05 1095.83 1476.8 1101.34 1470.96Z"/><path fill="#F3D8C2" transform="scale(1.62937 1.62937)" d="M610.124 1187.25C673.375 1136.56 768.115 1149.08 833.51 1189.22C830.502 1195.22 826.464 1202.72 824.153 1208.86C822.162 1207.45 820.155 1206.07 818.13 1204.72C774.861 1175.86 710.776 1161.63 659.54 1171.53C642.554 1174.81 625.046 1184.74 610.124 1187.25Z"/><path fill="#F3D8C2" transform="scale(1.62937 1.62937)" d="M916.498 1407.81C894.932 1401 882.782 1394.66 867.243 1376.99C858.611 1367.18 835.326 1330.55 836.355 1317.73C859.39 1359.94 878.13 1385.66 927.305 1392.66C934.199 1409.23 940.095 1424.01 958.086 1431.43C973.408 1437.75 989.002 1433.93 1004.95 1433.95C1021.1 1453.35 1027.87 1460.06 1052.84 1466.61C1041.37 1473.72 1013.47 1451.91 1004.38 1445.84C960.192 1446.44 941.745 1446.33 916.498 1407.81Z"/><path fill="#F3D8C2" transform="scale(1.62937 1.62937)" d="M760.793 1200.09C776.969 1202.35 797.9 1219.18 773.7 1226.28C764.328 1224.15 747.733 1219.83 748.246 1207.96C751.374 1202.4 754.811 1201.92 760.793 1200.09Z"/><path fill="#F3D8C2" transform="scale(1.62937 1.62937)" d="M708.496 1186.84C714.695 1187.68 720.865 1189.34 719.727 1196.78C717.694 1199.98 716.497 1200.05 712.758 1201.57C706.656 1200.76 699.962 1199.28 701.177 1191.85C703.343 1188.74 704.871 1188.48 708.496 1186.84Z"/><path fill="#CF5B32" transform="scale(1.62937 1.62937)" d="M856.425 1203.26C929.57 1203.49 983.262 1215.22 1041.11 1262.2C1045.6 1266.25 1049.55 1269.88 1053.8 1274.18C1060.52 1281.6 1067.07 1288.67 1072.77 1296.95C1079.25 1306.36 1084.95 1315.25 1089.58 1325.73C1095.49 1336.31 1100.81 1354.67 1102.45 1366.37L1103.16 1367.78L1102.62 1369.32C1091.06 1369.27 1072.27 1327.94 1016.24 1336.28C990.817 1313.32 980.673 1307.6 948.12 1321.26C915.053 1300.21 900.335 1297.65 863.859 1312.11C862.957 1310.71 862.074 1309.29 861.21 1307.86C844.914 1280.86 840.07 1252.38 847.626 1221.86C848.704 1219.69 849.433 1216.47 850.092 1214.07C851.94 1210.79 854.332 1206.24 856.425 1203.26Z"/><path fill="#B04726" transform="scale(1.62937 1.62937)" d="M847.626 1221.86C855.985 1257.43 861.407 1272.12 901.995 1274.96C916.439 1275.97 933.996 1277.73 948.159 1280.46C970.634 1284.75 992.543 1291.6 1013.46 1300.87C1037.42 1311.58 1059.2 1325.22 1078.95 1342.71C1084.27 1347.43 1098.76 1363.79 1102.45 1366.37L1103.16 1367.78L1102.62 1369.32C1091.06 1369.27 1072.27 1327.94 1016.24 1336.28C990.817 1313.32 980.673 1307.6 948.12 1321.26C915.053 1300.21 900.335 1297.65 863.859 1312.11C862.957 1310.71 862.074 1309.29 861.21 1307.86C844.914 1280.86 840.07 1252.38 847.626 1221.86Z"/><path fill="#F6E5D4" transform="scale(1.62937 1.62937)" d="M856.425 1203.26C929.57 1203.49 983.262 1215.22 1041.11 1262.2L1041.3 1263.82C1041.63 1266.3 1041.99 1267.01 1042.92 1269.31L1042.31 1271.85C1038.75 1272.05 1030.95 1265.44 1023.94 1264.37C1020.24 1262.71 1014.06 1259.01 1010.48 1256.88C960.036 1226.83 909.099 1213.78 850.092 1214.07C851.94 1210.79 854.332 1206.24 856.425 1203.26Z"/><path fill="#F6E5D4" transform="scale(1.62937 1.62937)" d="M1053.8 1274.18C1060.52 1281.6 1067.07 1288.67 1072.77 1296.95L1066.96 1300.37C1061.47 1295.14 1055.44 1289.83 1049.81 1284.7C1050.04 1278.9 1050.27 1278.69 1053.8 1274.18Z"/><path fill="#F3D8C2" transform="scale(1.62937 1.62937)" d="M1041.11 1262.2C1045.6 1266.25 1049.55 1269.88 1053.8 1274.18C1050.27 1278.69 1050.04 1278.9 1049.81 1284.7C1041.8 1278.28 1031.01 1271.37 1023.94 1264.37C1030.95 1265.44 1038.75 1272.05 1042.31 1271.85L1042.92 1269.31C1041.99 1267.01 1041.63 1266.3 1041.3 1263.82L1041.11 1262.2Z"/><path fill="#F3D8C2" transform="scale(1.62937 1.62937)" d="M1072.77 1296.95C1079.25 1306.36 1084.95 1315.25 1089.58 1325.73C1086.19 1325.03 1070.58 1304.7 1066.96 1300.37L1072.77 1296.95Z"/><path fill="#CF5B32" transform="scale(1.62937 1.62937)" d="M1624.54 296.95L1625.58 295.518L1627.04 296.156C1629.95 316.232 1623.67 345.29 1637.05 364.851C1641.97 372.056 1652.75 376.843 1654.5 384.709C1657.99 400.347 1651.31 411.481 1659.43 427.184C1669.4 438.799 1674.03 441.403 1687.96 448.102C1689.91 488.207 1703.31 499.054 1735.92 520.308C1714.8 546.618 1692.83 568.119 1659.3 576.797C1653.81 577.698 1648.33 578.709 1642.87 579.828L1627.98 580.106C1574.25 510.018 1569.05 366.914 1624.54 296.95Z"/><path fill="#F6E5D4" transform="scale(1.62937 1.62937)" d="M1624.54 296.95C1624.48 303.977 1611.54 333.209 1609.86 343.928C1608.04 355.519 1603.17 369.848 1601.64 382.599C1594.66 440.596 1606.9 501.622 1631.02 554.541C1633.58 560.153 1641.59 574.691 1642.87 579.828L1627.98 580.106C1574.25 510.018 1569.05 366.914 1624.54 296.95Z"/><path fill="#B04726" transform="scale(1.62937 1.62937)" d="M1659.43 427.184C1669.4 438.799 1674.03 441.403 1687.96 448.102C1689.91 488.207 1703.31 499.054 1735.92 520.308C1714.8 546.618 1692.83 568.119 1659.3 576.797C1664.29 569.268 1672.95 561.156 1678.83 553.65C1699.54 527.195 1683.47 498.699 1674.61 471.269C1669.81 456.399 1663.77 442.091 1659.43 427.184Z"/><path fill="#E6B06B" transform="scale(1.62937 1.62937)" d="M938.539 810.317C930.635 803.397 924.606 790.716 921.561 780.793C913.838 755.62 920.612 728.07 938.158 708.497C952.286 692.811 972.087 683.41 993.172 682.378C1013.26 681.47 1032.87 688.599 1047.69 702.19C1079 730.973 1080.65 782.501 1051.36 813.218C1048.8 815.911 1046.14 818.506 1043.38 820.998C1031.9 828.095 1017.9 835.422 1003.85 834.486C979.257 839.447 953.975 830.09 938.539 810.317Z"/><path fill="#F6E5D4" transform="scale(1.62937 1.62937)" d="M938.539 810.317C930.635 803.397 924.606 790.716 921.561 780.793C913.838 755.62 920.612 728.07 938.158 708.497C952.286 692.811 972.087 683.41 993.172 682.378C1013.26 681.47 1032.87 688.599 1047.69 702.19C1079 730.973 1080.65 782.501 1051.36 813.218C1048.8 815.911 1046.14 818.506 1043.38 820.998C1043.42 821.493 1039.18 818.127 1037.91 816.061C1062.82 790.805 1063.4 750.415 1039.25 724.446C1015.09 698.477 974.762 696.146 947.773 719.158C920.785 742.171 916.713 782.359 938.539 810.317Z"/><path fill="#F3D8C2" transform="scale(1.62937 1.62937)" d="M1003.85 834.486C1016.78 831.876 1028.65 825.46 1037.91 816.061C1039.18 818.127 1043.42 821.493 1043.38 820.998C1031.9 828.095 1017.9 835.422 1003.85 834.486Z"/><path fill="#51230D" transform="scale(1.62937 1.62937)" d="M977.138 729.567C999.481 721.095 1021.29 730.734 1029.7 753.023C1033.88 764.268 1033.41 776.713 1028.39 787.608C1007.08 834.121 932.439 804.569 954.885 752.607C955.405 736.939 962.588 732.414 977.138 729.567Z"/><path fill="#F6E5D4" transform="scale(1.62937 1.62937)" d="M954.885 752.607C955.405 736.939 962.588 732.414 977.138 729.567C999.352 752.16 972.971 773.251 954.885 752.607Z"/><path fill="#CF5B32" transform="scale(1.62937 1.62937)" d="M1519.26 951.659C1527.25 942.488 1544.99 926.805 1554.61 916.649C1571.56 898.748 1600.1 852.362 1621.74 846.697C1622.43 846.831 1623.13 846.965 1623.82 847.098C1626.75 853.157 1628.88 868.996 1630.72 875.331C1636.19 894.076 1643.25 906.659 1655.87 920.773L1664.23 928.231C1678.91 938.593 1689.41 941.774 1706.36 947.049C1667.77 986.595 1584.77 1014.23 1531.05 1027.17C1530.77 1018.38 1530.34 1009.59 1529.78 1000.81C1527.24 984.906 1521.95 971.07 1517.56 955.764C1516.96 953.661 1518.05 953.049 1519.26 951.659Z"/><path fill="#B04726" transform="scale(1.62937 1.62937)" d="M1664.23 928.231C1678.91 938.593 1689.41 941.774 1706.36 947.049C1667.77 986.595 1584.77 1014.23 1531.05 1027.17C1530.77 1018.38 1530.34 1009.59 1529.78 1000.81C1551.97 996.497 1579.36 977.586 1599.68 968.081C1624.09 956.662 1643.19 945.199 1664.23 928.231Z"/><path fill="#F6E5D4" transform="scale(1.62937 1.62937)" d="M1519.26 951.659C1527.25 942.488 1544.99 926.805 1554.61 916.649C1571.56 898.748 1600.1 852.362 1621.74 846.697C1622.43 846.831 1623.13 846.965 1623.82 847.098C1626.75 853.157 1628.88 868.996 1630.72 875.331C1636.19 894.076 1643.25 906.659 1655.87 920.773C1640.19 919.216 1621.81 881.85 1615.67 867.779C1597.94 882.732 1538.63 946.822 1520.3 952.215L1519.26 951.659Z"/><path fill="#CF5B32" transform="scale(1.62937 1.62937)" d="M1666.59 874.917C1653.52 845.538 1663.63 793.799 1683.59 769.382C1687.93 771.822 1692.5 774.108 1696.93 776.405L1698.24 777.476C1744.66 796.756 1778.73 804.914 1829.6 792.549C1826.73 826.833 1813.24 852.584 1787.29 875.498C1766.3 894.034 1716.63 916.944 1689.91 899.404C1680.23 893.486 1678.27 891.187 1671.01 882.243C1669.47 879.965 1668 877.314 1666.59 874.917Z"/><path fill="#B04726" transform="scale(1.62937 1.62937)" d="M1698.24 777.476C1744.66 796.756 1778.73 804.914 1829.6 792.549C1826.73 826.833 1813.24 852.584 1787.29 875.498C1766.3 894.034 1716.63 916.944 1689.91 899.404C1734.16 883.666 1760.39 859.688 1780.72 817.148C1748.64 817.278 1715.88 805.875 1698.24 777.476Z"/><path fill="#F6E5D4" transform="scale(1.62937 1.62937)" d="M1666.59 874.917C1653.52 845.538 1663.63 793.799 1683.59 769.382C1687.93 771.822 1692.5 774.108 1696.93 776.405C1680.89 798.535 1673.58 819.709 1669.24 846.777C1667.9 853.743 1667.84 872.098 1666.59 874.917Z"/><path fill="#C25D32" transform="scale(1.62937 1.62937)" d="M1669.24 846.777C1672.1 855.648 1671.17 872.354 1671.01 882.243C1669.47 879.965 1668 877.314 1666.59 874.917C1667.84 872.098 1667.9 853.743 1669.24 846.777Z"/><path fill="#E6B06B" transform="scale(1.62937 1.62937)" d="M1312.41 796.23C1305.5 791.239 1302.13 789.031 1294.82 784.873C1279.86 776.371 1255.99 769.235 1253.28 749.715C1251.27 735.22 1259.19 717.272 1267.9 706.258C1278.44 692.787 1293.93 684.098 1310.92 682.131C1327.9 679.981 1345.03 684.791 1358.42 695.468C1389.59 720.596 1391.49 769.881 1366.33 798.822C1360.76 805.224 1354.48 811.342 1346.03 813.436L1343.54 814.079C1332.14 811.762 1321.45 803.225 1312.41 796.23Z"/><path fill="#F6E5D4" transform="scale(1.62937 1.62937)" d="M1312.41 796.23C1305.5 791.239 1302.13 789.031 1294.82 784.873C1279.86 776.371 1255.99 769.235 1253.28 749.715C1251.27 735.22 1259.19 717.272 1267.9 706.258C1278.44 692.787 1293.93 684.098 1310.92 682.131C1327.9 679.981 1345.03 684.791 1358.42 695.468C1389.59 720.596 1391.49 769.881 1366.33 798.822C1360.76 805.224 1354.48 811.342 1346.03 813.436C1345.51 810.954 1349.25 808.521 1351.35 806.724C1372.98 788.228 1387.51 754.801 1374.33 727.225C1369.17 716.322 1359.84 707.954 1348.45 704.007C1335.38 699.533 1321.07 700.533 1308.75 706.78C1286.28 718.123 1276.42 743.194 1288.94 766.172C1294.41 777.271 1298.84 785.757 1311.58 790.043C1313.12 790.557 1314.67 791.051 1316.22 791.524L1312.41 796.23Z"/><path fill="#51230D" transform="scale(1.62937 1.62937)" d="M1314.6 725.419C1344.93 714.584 1359.86 733.114 1357.17 762.555C1355.11 785.115 1338.33 796.042 1316.22 791.524C1314.67 791.051 1313.12 790.557 1311.58 790.043C1298.84 785.757 1294.41 777.271 1288.94 766.172C1288.7 755.457 1289.72 751.448 1295.13 742.768C1299.02 731.825 1303.16 727.765 1314.6 725.419Z"/><path fill="#F6E5D4" transform="scale(1.62937 1.62937)" d="M1295.13 742.768C1299.02 731.825 1303.16 727.765 1314.6 725.419C1330.25 747.405 1309.46 761.015 1295.13 742.768Z"/><path fill="#CF5B32" transform="scale(1.62937 1.62937)" d="M690.577 1004.89C702.33 1001.8 741.512 1003.74 755.814 1004.03C759.873 1004.29 759.215 1003.6 761.616 1005.75C762.492 1014.33 760.347 1023.78 760.828 1030.52C761.703 1042.76 764.876 1061.11 767.658 1073.04C740.148 1082.87 704.551 1098.21 680.981 1115.79C660.073 1074.53 646.312 1056.2 604.69 1035.88C599.654 1035.24 593.649 1035.52 592.972 1029.85C599.857 1013.48 673.072 1005.21 690.577 1004.89Z"/><path fill="#B04726" transform="scale(1.62937 1.62937)" d="M755.814 1004.03C759.873 1004.29 759.215 1003.6 761.616 1005.75C762.492 1014.33 760.347 1023.78 760.828 1030.52C761.703 1042.76 764.876 1061.11 767.658 1073.04C740.148 1082.87 704.551 1098.21 680.981 1115.79C660.073 1074.53 646.312 1056.2 604.69 1035.88L610.712 1032.97C614.031 1035.9 619.028 1037.67 623.218 1039.34C644.246 1047.67 659.995 1060.66 677.923 1073.97C698.066 1068.26 723.037 1058.47 742.523 1050.67C744.359 1030.52 754.503 1017.95 755.316 1005.7L755.814 1004.03Z"/><path fill="#F6E5D4" transform="scale(1.62937 1.62937)" d="M604.69 1035.88C599.654 1035.24 593.649 1035.52 592.972 1029.85C599.857 1013.48 673.072 1005.21 690.577 1004.89C697.694 1005 702.143 1004.4 707.401 1009.71C677.781 1014.08 637.346 1018.77 610.712 1032.97L604.69 1035.88Z"/><path fill="#F3D8C2" transform="scale(1.62937 1.62937)" d="M690.577 1004.89C702.33 1001.8 741.512 1003.74 755.814 1004.03L755.316 1005.7C744.632 1006.33 714.938 1010.41 707.401 1009.71C702.143 1004.4 697.694 1005 690.577 1004.89Z"/><path fill="#CF5B32" transform="scale(1.62937 1.62937)" d="M561.611 1075.38C571.951 1068.89 573.884 1067.99 585.839 1066.02C604.422 1066.4 617.101 1075.73 629.55 1088.77C630.895 1090.17 632.193 1091.62 633.442 1093.12C642.661 1104.5 649.733 1114.26 654.762 1128.21L654.849 1130.33C652.115 1132.66 646.136 1134.05 642.452 1135.19L635.306 1137.78C626.312 1142.28 619.228 1144.81 610.156 1150.08C576.42 1169.68 560.061 1193.18 544.967 1227.79C504.957 1184.42 518.23 1112.03 561.611 1075.38Z"/><path fill="#B04726" transform="scale(1.62937 1.62937)" d="M561.611 1075.38C560.928 1081.87 556.64 1093.06 554.006 1099.5C544.218 1123.39 544.364 1146.23 553.316 1170.43C576.757 1153.69 604.087 1133.95 635.306 1137.78C626.312 1142.28 619.228 1144.81 610.156 1150.08C576.42 1169.68 560.061 1193.18 544.967 1227.79C504.957 1184.42 518.23 1112.03 561.611 1075.38Z"/><path fill="#F6E5D4" transform="scale(1.62937 1.62937)" d="M625.12 1098.22C630.847 1097.36 629.909 1097.33 633.442 1093.12C642.661 1104.5 649.733 1114.26 654.762 1128.21L654.849 1130.33C652.115 1132.66 646.136 1134.05 642.452 1135.19L640.59 1129.66C636.333 1116.85 631.923 1109.7 625.12 1098.22Z"/><path fill="#F3D8C2" transform="scale(1.62937 1.62937)" d="M640.59 1129.66C646.768 1126.36 647.742 1126.75 654.762 1128.21L654.849 1130.33C652.115 1132.66 646.136 1134.05 642.452 1135.19L640.59 1129.66Z"/><path fill="#F3D8C2" transform="scale(1.62937 1.62937)" d="M585.839 1066.02C604.422 1066.4 617.101 1075.73 629.55 1088.77C630.895 1090.17 632.193 1091.62 633.442 1093.12C629.909 1097.33 630.847 1097.36 625.12 1098.22C619.814 1091.8 610.356 1078.94 603.629 1075.04C599.021 1072.37 592.097 1069.78 586.594 1066.48L585.839 1066.02Z"/><path fill="#CF5B32" transform="scale(1.62937 1.62937)" d="M1688.67 1190.76L1690.51 1188.86C1704.31 1191.59 1809.67 1334.36 1820.39 1354.71C1828.84 1368.13 1821.58 1371.87 1811.52 1381.13C1810.74 1382.12 1809.51 1383.17 1808.43 1383.85C1802.99 1387.28 1795.24 1388.99 1788.95 1387.24C1764.57 1380.46 1692.91 1262.23 1675.69 1233.6C1679.09 1227.92 1680.37 1225.17 1682.94 1219.04C1686.88 1207.68 1687.52 1202.86 1688.67 1190.76Z"/><path fill="#B04726" transform="scale(1.62937 1.62937)" d="M1675.69 1233.6C1679.09 1227.92 1680.37 1225.17 1682.94 1219.04C1687.47 1232.44 1700.25 1249.43 1709.01 1260.94C1726.7 1283.79 1745.14 1306.04 1764.3 1327.66C1783.74 1349.22 1793.58 1357.37 1811.52 1381.13C1810.74 1382.12 1809.51 1383.17 1808.43 1383.85C1802.99 1387.28 1795.24 1388.99 1788.95 1387.24C1764.57 1380.46 1692.91 1262.23 1675.69 1233.6Z"/><path fill="#F3D8C2" transform="scale(1.62937 1.62937)" d="M1688.67 1190.76L1690.51 1188.86C1704.31 1191.59 1809.67 1334.36 1820.39 1354.71C1815.01 1352.92 1795.85 1327.76 1791.13 1322.5C1755.87 1283.17 1725.26 1239.94 1690.19 1200.49C1688.53 1198.62 1688.81 1193.43 1688.67 1190.76Z"/><path fill="#CF5B32" transform="scale(1.62937 1.62937)" d="M1381.55 1240.11C1388.7 1234.44 1396.68 1227.63 1404.48 1223.08C1409.83 1219.95 1411.32 1219.67 1417.01 1221.37C1430.32 1224.13 1445.42 1226.94 1458.3 1230.64C1475.75 1233.83 1507.61 1239.77 1524.48 1244.24C1550.04 1247.71 1572.03 1253.7 1596.71 1259.66C1602.97 1261.99 1607.51 1263.42 1613.16 1267.04L1606.44 1276.87C1601.75 1283.43 1596.88 1290.5 1592.08 1296.92C1590.26 1300.47 1588.5 1304.55 1585.87 1307.57C1583.95 1309.77 1582.01 1309.94 1579.19 1310.05C1557.49 1310.91 1486.67 1291.58 1465.24 1283.7C1446.41 1276.78 1395.5 1253.03 1381.55 1240.11Z"/><path fill="#B04726" transform="scale(1.62937 1.62937)" d="M1381.55 1240.11C1388.7 1234.44 1396.68 1227.63 1404.48 1223.08C1409.83 1219.95 1411.32 1219.67 1417.01 1221.37C1443.3 1265.4 1544.07 1275.97 1592.08 1296.92C1590.26 1300.47 1588.5 1304.55 1585.87 1307.57C1583.95 1309.77 1582.01 1309.94 1579.19 1310.05C1557.49 1310.91 1486.67 1291.58 1465.24 1283.7C1446.41 1276.78 1395.5 1253.03 1381.55 1240.11Z"/><path fill="#F6E5D4" transform="scale(1.62937 1.62937)" d="M1524.48 1244.24C1550.04 1247.71 1572.03 1253.7 1596.71 1259.66L1591.02 1261.57C1591.83 1263.31 1592.05 1263.69 1593.15 1265.27C1589.38 1267.16 1585.86 1264.02 1578.72 1265.97C1557.81 1259.51 1537.31 1254.61 1516.06 1249.37C1517.2 1247.8 1521.52 1246.29 1524.48 1244.24Z"/><path fill="#F3D8C2" transform="scale(1.62937 1.62937)" d="M1458.3 1230.64C1475.75 1233.83 1507.61 1239.77 1524.48 1244.24C1521.52 1246.29 1517.2 1247.8 1516.06 1249.37C1505.17 1246.65 1466.76 1236.73 1458.19 1232.1L1458.3 1230.64Z"/><path fill="#F3D8C2" transform="scale(1.62937 1.62937)" d="M1596.71 1259.66C1602.97 1261.99 1607.51 1263.42 1613.16 1267.04L1606.44 1276.87C1599.04 1272.28 1587.21 1268.72 1578.72 1265.97C1585.86 1264.02 1589.38 1267.16 1593.15 1265.27C1592.05 1263.69 1591.83 1263.31 1591.02 1261.57L1596.71 1259.66Z"/><path fill="#B04726" transform="scale(1.62937 1.62937)" d="M1354.6 1255.7C1364.67 1262.44 1373.79 1268.7 1384.42 1274.53C1406.3 1284.45 1427.98 1294.8 1449.46 1305.57C1455.29 1308.51 1469.18 1315.12 1474.19 1318.31C1486.36 1324.39 1502.6 1332.22 1512.37 1341.57L1499.71 1350.26C1494.28 1353.97 1488.26 1357.91 1483.01 1361.79C1475.48 1369.05 1473.6 1369.55 1463.68 1371.55C1408.26 1353.05 1351.03 1320.79 1308.93 1280.01C1324.48 1271.72 1339 1264.34 1354.6 1255.7Z"/><path fill="#CF5B32" transform="scale(1.62937 1.62937)" d="M1384.42 1274.53C1406.3 1284.45 1427.98 1294.8 1449.46 1305.57C1455.29 1308.51 1469.18 1315.12 1474.19 1318.31C1486.36 1324.39 1502.6 1332.22 1512.37 1341.57L1499.71 1350.26C1494.28 1353.97 1488.26 1357.91 1483.01 1361.79C1452.89 1354.82 1408.15 1329.81 1387.33 1306.97C1382.47 1301.64 1371.14 1282.65 1380.04 1277.79C1382.36 1278.13 1384.26 1278.7 1386.49 1277.69L1384.42 1274.53Z"/><path fill="#F3D8C2" transform="scale(1.62937 1.62937)" d="M1384.42 1274.53C1406.3 1284.45 1427.98 1294.8 1449.46 1305.57C1455.29 1308.51 1469.18 1315.12 1474.19 1318.31C1472.87 1321.79 1472.15 1323.67 1471.31 1327.26C1460.91 1320.29 1395.39 1280.83 1386.49 1277.69L1384.42 1274.53Z"/><path fill="#F6E5D4" transform="scale(1.62937 1.62937)" d="M1474.19 1318.31C1486.36 1324.39 1502.6 1332.22 1512.37 1341.57L1499.71 1350.26C1490.87 1340.84 1481.74 1334.77 1471.31 1327.26C1472.15 1323.67 1472.87 1321.79 1474.19 1318.31Z"/><path fill="#B04726" transform="scale(1.62937 1.62937)" d="M1498.97 1180.61C1507.49 1179.44 1517.07 1178.85 1525.72 1178.39C1563.31 1176.39 1600.44 1169.74 1637.98 1167.58C1657.2 1166.47 1666.59 1168.44 1660.79 1190.06L1657.62 1206.13C1652.26 1226.4 1648.5 1231.5 1626.01 1231.95C1575.57 1232.95 1524.97 1217.43 1475.7 1208.04C1463.59 1205.73 1449.99 1202.27 1438.35 1198.22L1456.38 1180.01C1466.14 1180.44 1487.36 1180.77 1496.53 1179.39L1498.97 1180.61Z"/><path fill="#CF5B32" transform="scale(1.62937 1.62937)" d="M1498.97 1180.61C1507.49 1179.44 1517.07 1178.85 1525.72 1178.39C1563.31 1176.39 1600.44 1169.74 1637.98 1167.58C1657.2 1166.47 1666.59 1168.44 1660.79 1190.06L1657.62 1206.13C1633.85 1205.78 1609.79 1203.94 1586 1202.99C1551.66 1201.61 1517.5 1200.9 1483.85 1193.04C1486.53 1188.94 1492.72 1183.51 1496.53 1179.39L1498.97 1180.61Z"/><path fill="#F3D8C2" transform="scale(1.62937 1.62937)" d="M1498.97 1180.61C1507.49 1179.44 1517.07 1178.85 1525.72 1178.39C1563.31 1176.39 1600.44 1169.74 1637.98 1167.58C1657.2 1166.47 1666.59 1168.44 1660.79 1190.06C1659.11 1187.43 1656.58 1182.13 1655.05 1179.17C1646.19 1178.46 1637.29 1178.28 1628.41 1178.63C1608.38 1179.4 1510.91 1187.62 1498.97 1180.61Z"/><path fill="#CF5B32" transform="scale(1.62937 1.62937)" d="M516.914 1240.28C519.523 1242.75 520.887 1244.58 523.132 1247.41C527.248 1251.08 531.771 1254.92 535.506 1258.92C537.665 1265.61 537.428 1285.94 538.353 1294.53C524.347 1322.43 486.853 1374.64 462.313 1393.39C454.503 1391.11 450.643 1389.8 443.246 1386.51C436.37 1383.64 433.324 1380.87 427.672 1376.21C428.123 1371.38 428.603 1365.09 430.643 1360.83C440.776 1340.08 469.194 1301.57 483.746 1283.13C490.33 1273.82 496.029 1265.78 503.255 1256.97C506.82 1250.8 512.073 1245.49 516.914 1240.28Z"/><path fill="#B04726" transform="scale(1.62937 1.62937)" d="M535.506 1258.92C537.665 1265.61 537.428 1285.94 538.353 1294.53C524.347 1322.43 486.853 1374.64 462.313 1393.39C454.503 1391.11 450.643 1389.8 443.246 1386.51C446.443 1383.12 449.606 1377.96 452.134 1373.97C474.591 1338.59 502.695 1307.31 525.654 1272.32C528.606 1267.82 531.668 1262.67 535.506 1258.92Z"/><path fill="#F6E5D4" transform="scale(1.62937 1.62937)" d="M483.746 1283.13C486.96 1285.28 488.9 1287 492.709 1287.63C486.348 1295.95 434.83 1359.72 430.643 1360.83C440.776 1340.08 469.194 1301.57 483.746 1283.13Z"/><path fill="#F3D8C2" transform="scale(1.62937 1.62937)" d="M516.914 1240.28C519.523 1242.75 520.887 1244.58 523.132 1247.41C522.388 1248.4 518.442 1253.79 517.854 1254.3C513.35 1260.77 497.841 1282.72 492.709 1287.63C488.9 1287 486.96 1285.28 483.746 1283.13C490.33 1273.82 496.029 1265.78 503.255 1256.97C506.82 1250.8 512.073 1245.49 516.914 1240.28Z"/><path fill="#F6E5D4" transform="scale(1.62937 1.62937)" d="M516.914 1240.28C519.523 1242.75 520.887 1244.58 523.132 1247.41C522.388 1248.4 518.442 1253.79 517.854 1254.3C514.029 1256.04 509.933 1259.98 506.845 1260.23C504.634 1259.01 504.793 1259.02 503.255 1256.97C506.82 1250.8 512.073 1245.49 516.914 1240.28Z"/><path fill="#CF5B32" transform="scale(1.62937 1.62937)" d="M1628.92 1295.98C1631.54 1292.43 1630.57 1292.59 1634.01 1291.41C1641.47 1294.43 1644.33 1307.82 1646.8 1315.36C1661 1355.27 1674.56 1395.41 1687.47 1435.76C1694.47 1454.11 1678.28 1454.99 1664.07 1456.41C1649.43 1459.95 1643.12 1450.47 1638.18 1438.38C1623.24 1401.85 1614.01 1361.9 1606.14 1323.33C1611.8 1317.37 1617.08 1311.27 1622.48 1305.09C1624.59 1302.5 1626.98 1298.8 1628.92 1295.98Z"/><path fill="#B04726" transform="scale(1.62937 1.62937)" d="M1606.14 1323.33C1611.8 1317.37 1617.08 1311.27 1622.48 1305.09C1631.1 1346.24 1638.58 1388.63 1653.1 1428.15C1656.58 1437.64 1660.3 1447.03 1664.07 1456.41C1649.43 1459.95 1643.12 1450.47 1638.18 1438.38C1623.24 1401.85 1614.01 1361.9 1606.14 1323.33Z"/><path fill="#F3D8C2" transform="scale(1.62937 1.62937)" d="M1646.8 1315.36C1661 1355.27 1674.56 1395.41 1687.47 1435.76L1686.34 1435.42C1675.07 1424.58 1646.73 1339.68 1638.34 1319.22C1642 1316.15 1641.78 1315.97 1646.8 1315.36Z"/><path fill="#F6E5D4" transform="scale(1.62937 1.62937)" d="M1628.92 1295.98C1631.54 1292.43 1630.57 1292.59 1634.01 1291.41C1641.47 1294.43 1644.33 1307.82 1646.8 1315.36C1641.78 1315.97 1642 1316.15 1638.34 1319.22L1628.92 1295.98Z"/><path fill="#CF5B32" transform="scale(1.62937 1.62937)" d="M1513.53 1375.14L1522.4 1367.4C1526.23 1393.72 1524.57 1409.14 1524.41 1435.49C1524.42 1452.08 1525.1 1468.67 1526.45 1485.2C1527.64 1489.48 1527.05 1504.41 1526.91 1509.47C1517.17 1508.3 1512.22 1507.98 1502.39 1508C1496.22 1507.67 1486.38 1507.22 1483.96 1500.8C1472.36 1470.03 1480.32 1424.09 1488.28 1393.54C1493.09 1389.53 1496.63 1387.2 1501.88 1383.76C1506.1 1380.96 1509.54 1378.25 1513.53 1375.14Z"/><path fill="#B04726" transform="scale(1.62937 1.62937)" d="M1488.28 1393.54C1493.09 1389.53 1496.63 1387.2 1501.88 1383.76C1501.95 1397.92 1498.31 1411.42 1497.41 1423.54C1496.15 1440.35 1495.74 1494.11 1502.39 1508C1496.22 1507.67 1486.38 1507.22 1483.96 1500.8C1472.36 1470.03 1480.32 1424.09 1488.28 1393.54Z"/><path fill="#F6E5D4" transform="scale(1.62937 1.62937)" d="M1513.53 1375.14L1522.4 1367.4C1526.23 1393.72 1524.57 1409.14 1524.41 1435.49C1524.42 1452.08 1525.1 1468.67 1526.45 1485.2L1525.91 1487.3C1516.79 1475.19 1517.1 1394.49 1513.53 1375.14Z"/><path fill="#CF5B32" transform="scale(1.62937 1.62937)" d="M565.884 1394.41C568.489 1388.04 570.621 1382.96 573.73 1376.85C585.368 1397.25 591.723 1404.05 608.088 1420.81C602.824 1435.35 595.228 1454.57 581.13 1462.63C577.835 1462.45 573.311 1462.35 570.174 1461.76C561.868 1459.52 551.055 1457.5 545.642 1450.98C544.494 1447.68 544.791 1447.61 545.705 1444.32C550.62 1428.8 559.405 1409.87 565.884 1394.41Z"/><path fill="#B04726" transform="scale(1.62937 1.62937)" d="M565.884 1394.41C568.489 1388.04 570.621 1382.96 573.73 1376.85C585.368 1397.25 591.723 1404.05 608.088 1420.81C602.824 1435.35 595.228 1454.57 581.13 1462.63C577.835 1462.45 573.311 1462.35 570.174 1461.76C576.27 1458.03 584.95 1433.59 587.801 1426.44C585.582 1423.25 568.993 1396.08 569.093 1396.16L565.884 1394.41Z"/><path fill="#F3D8C2" transform="scale(1.62937 1.62937)" d="M565.884 1394.41L569.093 1396.16C570.261 1405.1 552.612 1438.16 545.705 1444.32C550.62 1428.8 559.405 1409.87 565.884 1394.41Z"/><path fill="#B04726" transform="scale(1.62937 1.62937)" d="M1822.81 1404.9L1836.5 1394.71C1841.96 1432.3 1848.93 1472.81 1841.65 1510.67C1841.08 1513.64 1839.89 1520.7 1837.8 1522.71L1836.37 1522.01L1835.94 1519.34C1826.8 1483.54 1816.27 1447.31 1807.52 1412.03L1822.81 1404.9Z"/><path fill="#CF5B32" transform="scale(1.62937 1.62937)" d="M1822.81 1404.9L1836.5 1394.71C1841.96 1432.3 1848.93 1472.81 1841.65 1510.67C1841.08 1513.64 1839.89 1520.7 1837.8 1522.71L1836.37 1522.01L1835.94 1519.34C1839.92 1498.72 1831.53 1425.32 1822.81 1404.9Z"/><path fill="#B04726" transform="scale(1.62937 1.62937)" d="M416.672 1399.98C420.765 1403.19 426.139 1406.7 430.5 1409.7C435.199 1412.08 440.04 1414.63 444.769 1416.91C439.407 1437.46 433.269 1457.67 427.755 1478.17C423.327 1494.64 420.088 1512.69 414.965 1528.83C413.4 1521.95 411.725 1515.1 410.769 1508.1C404.118 1474.94 408.838 1432.64 416.672 1399.98Z"/><path fill="#CF5B32" transform="scale(1.62937 1.62937)" d="M416.672 1399.98C420.765 1403.19 426.139 1406.7 430.5 1409.7C424.25 1424.13 424.375 1427.73 421.256 1441.1C418.576 1452.59 414.647 1501.61 410.769 1508.1C404.118 1474.94 408.838 1432.64 416.672 1399.98Z"/><path fill="#B04726" transform="scale(1.62937 1.62937)" d="M543.38 1479.58L559.883 1484.32L571.996 1487.62C572.066 1510.52 571.836 1533.41 571.307 1556.31C571.167 1563.57 571.65 1577.51 570.554 1583.6L569.472 1584.55C568.28 1583.37 568.176 1583.56 567.53 1582.14C552.362 1554.25 545.389 1511.28 543.38 1479.58Z"/><path fill="#CF5B32" transform="scale(1.62937 1.62937)" d="M543.38 1479.58L559.883 1484.32C556.269 1507.34 560.523 1536 563.087 1559.06C564.022 1567.47 568.516 1573.23 567.53 1582.14C552.362 1554.25 545.389 1511.28 543.38 1479.58Z"/><path fill="#B04726" transform="scale(1.62937 1.62937)" d="M1675.11 1480.59C1679.86 1479.69 1684.59 1478.83 1689.31 1477.73C1683.82 1508.66 1674.64 1554.06 1656.17 1579.88L1655.79 1580.44L1654.42 1579.87C1653.71 1574.76 1656.65 1551.24 1657.08 1544.04C1658.29 1523.74 1659.28 1503.48 1660.24 1483.17C1665.21 1482.41 1670.17 1481.55 1675.11 1480.59Z"/><path fill="#CF5B32" transform="scale(1.62937 1.62937)" d="M1675.11 1480.59C1679.86 1479.69 1684.59 1478.83 1689.31 1477.73C1683.82 1508.66 1674.64 1554.06 1656.17 1579.88C1655.87 1572.94 1661.49 1566.12 1663.06 1558.45C1668.16 1533.51 1674.6 1506.08 1675.11 1480.59Z"/><defs><linearGradient id="gradient_0" gradientUnits="userSpaceOnUse" x1="1474.4181" y1="1563.7734" x2="1496.0687" y2="1573.1393"><stop offset="0" stop-color="#AF4425"/><stop offset="1" stop-color="#DB6D3A"/></linearGradient></defs><path fill="url(#gradient_0)" transform="scale(1.62937 1.62937)" d="M1486.76 1531.95C1496.62 1532.27 1506.49 1532.64 1516.36 1533.08C1504.95 1554.85 1490.07 1575.19 1474.36 1594.01C1468.33 1600.44 1463.98 1603.9 1456.92 1609.12C1464.18 1586.05 1477.6 1554.85 1486.76 1531.95Z"/><path fill="#B04726" transform="scale(1.62937 1.62937)" d="M682.398 1531.86C686.522 1531.64 690.896 1531.5 694.975 1530.99C706.223 1557.01 714.602 1583.08 725.203 1608.07C720.257 1604.44 714.456 1599.67 710.583 1594.89C690.637 1576.16 679.057 1555.32 665.58 1531.89L682.398 1531.86Z"/><path fill="#CF5B32" transform="scale(1.62937 1.62937)" d="M665.58 1531.89L682.398 1531.86C687.818 1548.51 707.951 1583.92 710.583 1594.89C690.637 1576.16 679.057 1555.32 665.58 1531.89Z"/><path fill="#B04726" transform="scale(1.62937 1.62937)" d="M658.841 1467.14C668.846 1473.56 696.977 1489.52 700.907 1499C700.771 1502.3 701.315 1500.86 699.134 1503.44C695.352 1505.03 691.363 1506.18 687.206 1505.89C676.348 1506.49 665.527 1506.44 654.653 1506.49C655.304 1499.58 656.101 1493.78 657.189 1486.92L658.841 1467.14Z"/><path fill="#CF5B32" transform="scale(1.62937 1.62937)" d="M657.189 1486.92C661.444 1488.83 684.22 1502.98 687.206 1505.89C676.348 1506.49 665.527 1506.44 654.653 1506.49C655.304 1499.58 656.101 1493.78 657.189 1486.92Z"/><path fill="#F6E5D4" fill-opacity="0.019607844" transform="scale(1.62937 1.62937)" d="M1654.4 340.346L1657.05 340.711C1680.06 343.914 1688.13 375.329 1684.7 394.693C1680.9 416.161 1686.62 413.125 1699.97 424.635C1696.88 423.481 1692.21 421.688 1689.31 420.268C1672.72 412.168 1686.37 387.772 1677.41 371.636C1669.14 356.732 1659.66 356.413 1654.4 340.346Z"/><path fill="#F6E5D4" fill-opacity="0.011764706" transform="scale(1.62937 1.62937)" d="M1868.14 1437.35C1874.22 1445.15 1876.43 1480.7 1868.55 1489.03C1870.76 1470.06 1869.19 1456.13 1868.14 1437.35Z"/></svg>