<?xml version="1.0" encoding="utf-8" ?><svg xmlns="http://www.w3.org/2000/svg" xmlns:xlink="http://www.w3.org/1999/xlink" width="850" height="850" viewBox="0 0 850 850"><clipPath id="cl_3"><rect width="850" height="850"/></clipPath><g clip-path="url(#cl_3)"><path fill="#51210B" transform="translate(-84 -91)" d="M502.295 180.346C515.666 142.907 574.675 150.948 603.791 162.061C646.51 178.367 682.27 206.049 709.006 243.133C729.615 271.719 737.717 298.143 716.061 329.094C722.784 343.119 725.428 355.96 720.006 370.916C713.24 389.579 701.462 397.392 683.403 403.148C688.685 410.523 687.361 413.345 680.86 419.8C676.894 423.738 671.806 426.745 667.468 430.256C655.427 439.714 629.62 457.036 620.536 468.76C654.173 458.734 684.281 436.845 713.645 418.217C718.37 415.219 724.883 415.559 729.43 412.146C741.057 402.091 745.314 384.35 746.013 369.608C746.419 361.036 742.871 351.349 741.676 342.861C741.314 340.287 741.012 335.995 744.41 335.506C747.426 335.006 750.691 336.421 752.957 338.213C764.341 347.214 770.357 361.863 772.351 375.683C775.165 395.863 769.879 416.335 757.648 432.63C755.565 435.362 744.321 448.306 741.941 449.712C731.963 455.606 716.036 460.91 704.988 465.1C696.981 468.15 689.1 471.518 681.361 475.197C702.311 471.45 722.379 459.517 744.497 457.828C752.51 451.876 758.795 445.548 764.14 437.072C769.821 428.063 770.715 415.646 776.607 407.131C779.926 402.335 785.732 406.562 787.681 410.926C793.486 423.924 790.505 438.575 786.133 451.546C780.115 469.05 772.098 480.01 758.877 492.46C756.798 494.417 754.378 498.788 751.943 499.654C731.694 506.852 702.028 505.238 681.747 508.004C690.893 513.109 698.731 516.466 707.757 522.123C702.402 523.029 691.657 523.366 686.301 523.184L682.436 523.539C677.85 523.665 673.054 523.5 668.45 523.413C662.103 523.828 655.748 524.106 649.388 524.245L582.893 525.516C575.862 526.548 568.029 526.205 560.881 526.045L558.355 526.454L551.013 526.469C548.571 526.777 546.859 527.036 544.376 527.026C540.333 527.326 538.643 527.27 534.582 526.962C520.934 528.845 506.451 528.193 492.678 529.166C490.418 529.326 487.404 529.524 485.176 529.431L478.546 529.531C471.079 530.226 458.462 530.935 450.918 530.982L446.922 530.931C442.203 531.121 436.146 531.541 431.524 531.463C429.798 531.565 428.072 531.646 426.345 531.706L420.852 531.553C416.17 532.265 408.666 532.504 403.893 532.488C402.103 530.811 400.27 529.394 398.359 527.864C396.131 526.217 395.462 525.733 392.965 524.579C384.757 518.004 336.951 509.434 328.022 514.268C329.069 516.008 329.623 516.998 330.909 518.545C332.218 522.135 335.518 530.659 336.314 534.042C331.306 534.674 325.62 534.499 320.523 534.491C310.327 534.705 299.728 535.072 289.56 534.989L281.06 535.237C276.389 535.564 272.166 535.41 267.502 535.299C275.951 525.591 283.653 519.465 293.933 512.161C281.595 510.934 237.844 507.139 229.611 500.055C225.981 496.931 223.449 492.771 220.236 489.258C215.92 484.542 211.242 480.387 207.219 475.367C198.116 464.01 192.605 447.777 191.449 433.396C190.998 427.786 190.868 417.93 194.965 413.557C195.916 412.542 197.126 412.012 198.522 412.012C199.26 412.012 201.017 412.281 201.634 412.678C205.174 414.962 215.488 435.2 218.771 440.121C223.475 447.17 228.961 454.539 235.184 460.342C251.157 463.655 260.387 470.162 275.681 475.874C292.366 482.107 308.616 487.416 325.573 492.838C336.948 496.475 347.758 501.198 359.469 504.228C346.802 496.798 331.623 492.279 318.17 486.378C294.012 475.81 269.929 464.94 245.106 455.989C234.416 452.134 235.319 448.229 229.35 440.502C219.116 427.254 210.103 416.192 208.302 398.989C206.153 381.298 211.449 362.874 222.003 348.613C225.731 343.937 237.571 334.238 238.292 346.48C239.111 360.378 235.448 374.795 237.475 388.787C238.932 398.84 245.265 409.732 251.66 417.298C268.266 418.035 272.587 423.7 286.318 432.275C297.091 439.064 307.983 445.662 318.989 452.066C321.309 453.585 329.657 459.269 331.679 459.583C328.077 456.402 324.388 453.32 320.616 450.341C312.139 442.893 290.326 424.274 284.529 414.831C284.477 411.581 284.445 408.727 284.6 405.482C279.79 405.282 275.79 403.87 272.022 400.855C251.056 384.079 251.508 355.461 261.469 333.105C253.057 316.887 248.589 298.014 255.07 280.261C270.934 236.803 314.234 199.616 354.466 179.146C383.201 164.525 416.949 156.262 448.146 166.359C458.798 169.806 468.731 175.921 473.838 186.123C474.378 187.212 474.891 188.315 475.376 189.43C460.962 189.703 456.279 191.937 446.998 203.216C427.006 200.237 420.629 208.556 413.958 225.692C392.859 222.075 383.332 233.388 377.526 251.75C363.516 254.719 352.758 258.147 348.92 274.076C359.829 273.172 372.764 272.336 383.393 270.362C385.674 266.509 387.771 262.884 390.359 259.215C395.307 260.734 399.318 262.941 404.011 264.866C412.536 262.738 419.028 260.559 427.261 257.484C430.208 253.208 431.603 249.076 433.054 244.112C436.984 245.289 441.542 246.532 445.377 247.848C450.765 242.503 468.842 224.432 475.515 223.673C483.876 227.622 465.011 260.986 461.553 266.124C439.816 298.419 409.722 323.914 376.122 343.225C360.7 352.142 348.628 359.062 331.104 363.127C326.361 377.733 324.605 380.025 314.748 391.614C325.458 386.01 335.693 380.148 345.303 391.605C354.07 402.056 363.016 415.811 368.874 428.155C381.236 413.739 392.072 403.905 407.49 392.593C402.645 384.685 399.511 377.217 399.5 367.751C399.485 354.054 406.377 340.76 418.225 333.614C427.247 328.274 438.039 326.791 448.167 329.499C457.942 332.062 466.283 338.436 471.322 347.196C473.803 351.542 475.14 355.853 475.861 360.796C491.08 356.762 499.521 357.17 514.949 358.665C517.414 348.067 521.907 339.707 531.407 333.808C539.024 329.068 548.217 327.56 556.95 329.617C565.962 331.778 573.722 337.481 578.477 345.435C583.283 353.222 584.764 362.612 582.586 371.5C580.896 378.285 577.93 382.529 573.62 387.832C581.589 402.951 592.246 405.898 605.52 416.095C611.31 402.669 621.607 382.786 634.6 375.314C640.749 371.778 652.962 380.919 658.254 384.605C651.398 373.808 648.726 367.72 647.814 354.787C598.2 344.798 549.657 301.102 520.819 260.871C514.37 251.874 497.637 220.191 502.949 210.644C508.289 208.954 529.35 231.629 533.617 235.936C538.695 235.543 542.196 235.551 547.238 235.632C548.162 239.254 549.124 242.867 550.123 246.47C558.912 250.515 570.233 253.768 579.653 256.45C580.624 253.325 581.043 251.854 581.606 248.588C586.244 250.282 592.952 255.688 596.51 259.163C606.622 259.755 618.695 260.226 628.601 261.433C621.693 247.073 615.012 242.585 599.083 242.229C595.104 224.544 588.369 216.304 569.331 215.614C561.395 197.787 552.979 193.894 533.948 195.086C528.672 180.245 516.156 179.556 502.295 180.346Z"/><path fill="#D65E33" transform="translate(-84 -91)" d="M466.659 381.281C484.947 374.553 500.432 371.034 519.835 375.388C524.025 376.329 532.836 379.467 536.516 379.424C545.518 384.188 569.815 399.974 573.234 409.291C575.738 413.664 592.342 422.426 596.967 428.706C598.635 430.969 605.855 441.629 607.15 442.412C614.203 461.542 609.273 474.036 599.451 491.153C603.583 474.822 605.231 467.721 598.196 451.933C600.599 471.417 598.585 488.239 586.163 504.197C580.36 511.653 568.912 521.14 560.881 526.045L558.355 526.454L551.013 526.469C548.571 526.777 546.859 527.036 544.376 527.026C540.333 527.326 538.643 527.27 534.582 526.962C520.934 528.845 506.451 528.193 492.678 529.166C490.418 529.326 487.404 529.524 485.176 529.431L478.546 529.531C471.079 530.226 458.462 530.935 450.918 530.982L446.922 530.931C442.203 531.121 436.146 531.541 431.524 531.463C429.798 531.565 428.072 531.646 426.345 531.706L420.852 531.553C409.797 523.184 402.312 520.169 391.515 509.131C378.827 496.159 369.307 474.958 369.557 456.828C370.716 456.72 373.034 450.907 373.988 449.45C375.366 447.345 376.218 445.365 377.891 443.292C390.162 428.097 405.226 415.225 422.005 405.253C424.498 403.771 426.97 402.314 429.224 400.445C446.853 401.967 456.324 394.961 466.659 381.281Z"/><path fill="#BB4B26" transform="translate(-84 -91)" d="M465.564 517.073C468.508 517.354 475.688 519.998 479.141 520.809C487.536 522.782 494.478 523.008 502.739 523.275C526.409 524.827 542.768 516.171 557.267 497.625C560.528 493.455 566.308 485.115 570.075 481.618C566.643 497.386 547.57 518.008 534.582 526.962C520.934 528.845 506.451 528.193 492.678 529.166C490.418 529.326 487.404 529.524 485.176 529.431L478.546 529.531C476.568 528.019 474.653 526.717 472.602 525.319C470.576 523.568 465.274 519.267 464.508 516.798L465.564 517.073Z"/><path fill="#51210B" transform="translate(-84 -91)" d="M472.602 525.319C470.576 523.568 465.274 519.267 464.508 516.798L465.564 517.073C469.231 520.881 480.445 527.638 485.176 529.431L478.546 529.531C476.568 528.019 474.653 526.717 472.602 525.319Z"/><path fill="#51210B" transform="translate(-84 -91)" d="M587.418 463.64L588.552 465.871C588.418 492.628 580.706 504.241 561.66 523.157C560.924 523.888 558.952 525.723 558.355 526.454L551.013 526.469C569.777 508.352 584.61 490.46 587.418 463.64Z"/><path fill="#BB4B26" transform="translate(-84 -91)" d="M432.011 509.975C435.658 510.928 441.624 515.912 445.234 518C450.211 520.88 467.585 526.974 472.602 525.319C474.653 526.717 476.568 528.019 478.546 529.531C471.079 530.226 458.462 530.935 450.918 530.982C443.416 523.308 437.844 519.447 432.011 509.975Z"/><path fill="#51210B" transform="translate(-84 -91)" d="M572.812 474.763C568.555 498.74 562.065 510.089 544.376 527.026C540.333 527.326 538.643 527.27 534.582 526.962C547.57 518.008 566.643 497.386 570.075 481.618C570.947 478.969 571.69 477.267 572.812 474.763Z"/><path fill="#51210B" transform="translate(-84 -91)" d="M401.8 475.726C401.917 473.842 401.801 472.668 402.777 471.061C404.693 483.495 408.434 499.674 416.211 509.858C419.168 516.162 426.786 525.845 431.524 531.463C429.798 531.565 428.072 531.646 426.345 531.706C424.25 528.533 419.63 523.49 417.07 519.806C406.902 505.173 403.426 493.045 401.8 475.726Z"/><path fill="#51210B" transform="translate(-84 -91)" d="M418.277 484.127C423.708 494.075 424.657 499.577 432.011 509.975C437.844 519.447 443.416 523.308 450.918 530.982L446.922 530.931L442.905 528.296C427.48 514.741 423.263 503.727 418.277 484.127Z"/><path fill="#BB4B26" transform="translate(-84 -91)" d="M416.211 509.858C423.02 513.109 436.629 531.663 442.905 528.296L446.922 530.931C442.203 531.121 436.146 531.541 431.524 531.463C426.786 525.845 419.168 516.162 416.211 509.858Z"/><path fill="#782815" transform="translate(-84 -91)" d="M401.8 475.726C401.551 473.069 401.279 467.491 401.508 464.936C402.378 466.651 402.518 469.095 402.777 471.061C401.801 472.668 401.917 473.842 401.8 475.726Z"/><path fill="#782815" transform="translate(-84 -91)" d="M587.418 463.64C587.508 462.066 587.19 462.152 587.9 461.338C588.542 463.481 588.568 463.619 588.552 465.871L587.418 463.64Z"/><path fill="#51210B" transform="translate(-84 -91)" d="M437.681 409.784C443.878 410.899 463.046 421.486 469.907 424.867C491.194 435.354 515.695 441.012 537.355 428.149C550.388 420.41 553.104 416.772 567.843 411.715C551.131 425.351 547.639 434.548 541.86 455.106C539.027 466.174 537.54 477.469 532.55 487.88C524.489 504.698 509.864 506.631 494.497 498.616C461.112 481.204 452.01 446.109 441.7 412.943L437.681 409.784Z"/><path fill="#D65E33" transform="translate(-84 -91)" d="M485.188 459.421C487.581 459.787 489.959 460.242 492.318 460.785C505.611 463.833 513.523 469.929 520.647 481.245C522.073 483.05 523.053 484.277 524.281 486.241C516.607 492.102 509.968 494.677 500.391 490.878C486.905 486.851 475.449 474.538 468.069 463.043C485.859 457.138 486.599 468.355 499.93 476.709C495.705 471.293 489.856 464.417 485.188 459.421Z"/><path fill="#BB4B26" transform="translate(-84 -91)" d="M520.647 481.245C522.073 483.05 523.053 484.277 524.281 486.241C516.607 492.102 509.968 494.677 500.391 490.878C502.608 490.015 510.69 490.484 513.888 488.893C517.763 486.966 518.922 485.016 520.647 481.245Z"/><path fill="#51210B" transform="translate(-84 -91)" d="M385.981 456.847C385.97 455.248 385.759 455.138 386.455 453.844C387.111 456.967 386.997 460.061 386.932 463.238C388.212 475.304 390.249 485.146 395.647 496.21C397.592 500.198 400.861 504.766 402.323 508.648L401.812 509.252C399.191 508.797 395.826 504.66 394.354 502.438C385.617 489.246 383.71 472.159 385.981 456.847Z"/><path fill="#782815" transform="translate(-84 -91)" d="M385.981 456.847C385.97 455.248 385.759 455.138 386.455 453.844C387.111 456.967 386.997 460.061 386.932 463.238C386.546 461.055 386.27 459.036 385.981 456.847Z"/><path fill="#51210B" transform="translate(-84 -91)" d="M483.959 402.151C489.718 402.875 493.51 411.817 490.607 416.648C481.744 416.634 481.204 408.85 483.959 402.151Z"/><path fill="#51210B" transform="translate(-84 -91)" d="M529.483 400.947C534.273 404.098 535.503 411.204 530.605 414.971C524.365 410.095 525.089 406.926 529.483 400.947Z"/><path fill="#51210B" transform="translate(-84 -91)" d="M538.633 403.812C540.379 404.829 540.955 405.136 541.737 406.934C541.882 409.052 541.485 409.411 540.429 411.383C538.262 410.473 538.192 410.274 537.322 408.506C537.311 406.246 537.619 405.931 538.633 403.812Z"/><path transform="translate(-84 -91)" d="M511.688 406.937C514.401 408.319 522.303 413.967 524.799 415.958C524.133 415.808 523.473 415.634 522.819 415.438C518.296 414.043 513.945 411.202 511.688 406.937Z"/><path transform="translate(-84 -91)" d="M495.893 405.995C497.756 407.106 503.903 412.38 506.077 414.122C501.447 413.352 497.362 410.561 495.893 405.995Z"/><defs><linearGradient id="gradient_0" gradientUnits="userSpaceOnUse" x1="617.59192" y1="523.65863" x2="617.41144" y2="513.03674"><stop offset="0" stop-color="#B03E1A"/><stop offset="1" stop-color="#DD582F"/></linearGradient></defs><path fill="url(#gradient_0)" transform="translate(-84 -91)" d="M650.991 510.496C650.838 515.036 649.583 519.662 649.388 524.245L582.893 525.516C586.083 522.807 588.896 519.723 591.778 516.69C595.752 514.448 602.574 515.26 607.134 515.634C621.928 516.849 636.623 511.532 650.991 510.496Z"/><path fill="#FEFDFD" transform="translate(-84 -91)" d="M591.778 516.69C595.752 514.448 602.574 515.26 607.134 515.634C621.928 516.849 636.623 511.532 650.991 510.496C642.849 516.438 602.129 519.578 591.778 516.69Z"/><path fill="#D65E33" transform="translate(-84 -91)" d="M281.06 535.237C287.91 526.865 298.746 519.707 308.899 516.037C315.244 518.836 316.69 520.494 319.924 526.524C320.453 529.837 320.508 531.14 320.523 534.491C310.327 534.705 299.728 535.072 289.56 534.989L281.06 535.237Z"/><path fill="#BB4B26" transform="translate(-84 -91)" d="M319.924 526.524C320.453 529.837 320.508 531.14 320.523 534.491C310.327 534.705 299.728 535.072 289.56 534.989C299.062 528.126 311.898 529.139 319.924 526.524Z"/><path fill="#FEFDFD" transform="translate(-84 -91)" d="M369.557 456.828C371.359 435.12 407.332 402.955 429.224 400.445C426.97 402.314 424.498 403.771 422.005 405.253C405.226 415.225 390.162 428.097 377.891 443.292C376.218 445.365 375.366 447.345 373.988 449.45C373.034 450.907 370.716 456.72 369.557 456.828Z"/><path fill="#FEFDFD" transform="translate(-84 -91)" d="M466.659 381.281C469.352 376.885 472.457 374.938 477.427 373.407C497.277 367.294 518.302 369.948 536.516 379.424C532.836 379.467 524.025 376.329 519.835 375.388C500.432 371.034 484.947 374.553 466.659 381.281Z"/><path fill="#D65E33" transform="translate(-84 -91)" d="M668.45 523.413C666.758 522.205 665.051 520.98 663.479 519.621C661.091 517.555 660.877 512.086 662.993 510.012L664.069 510.323L663.89 511.037C669.914 515.547 676.532 519.128 682.436 523.539C677.85 523.665 673.054 523.5 668.45 523.413Z"/><path fill="#FEFDFD" transform="translate(-84 -91)" d="M573.234 409.291C585.424 415.572 602.725 428.918 607.15 442.412C605.855 441.629 598.635 430.969 596.967 428.706C592.342 422.426 575.738 413.664 573.234 409.291Z"/><path fill="#FEFDFD" transform="translate(-84 -91)" d="M664.069 510.323C671.053 512.659 680.664 518.357 686.301 523.184L682.436 523.539C676.532 519.128 669.914 515.547 663.89 511.037L664.069 510.323Z"/><path fill="#D65E33" transform="translate(-84 -91)" d="M519.506 173.97C520.706 171.349 523.467 170.439 526.228 169.403C554.212 158.897 587.875 167.708 613.963 179.576C649.05 195.538 698.524 237.236 711.537 273.741C712.52 276.462 713.362 279.233 714.059 282.041C718.213 287.678 715.071 304.607 712.569 310.739C707.647 322.801 697.821 332.834 686.139 338.21C667.613 346.736 648.535 345.657 630.042 337.846C586.266 320.565 531.254 269.515 512.683 226.401C516.949 228.162 517.329 229.941 520.475 232.556L521.598 231.882C526.469 236.37 529.914 239.479 535.523 243.232C537.611 244.629 544.244 248.604 545.725 249.845C568.419 258.891 583.062 262.431 607.61 264.523C616.675 265.295 634.135 266.626 642.218 268.53C650.265 268.642 672.046 275.079 680.031 277.463C677.71 276.286 675.405 275.078 673.116 273.84C671.115 273.474 668.968 272.687 667.039 272.01C656.493 268.305 645.837 265.179 635.05 262.28C633.56 261.879 633.505 260.679 633.056 259.391C628.877 245.42 616.908 240.245 604.294 236.221C596.731 218.462 591.907 215.108 573.423 210.341C564.541 194.771 556.384 189.966 538.433 189.466C531.913 178.232 529.877 179.464 519.506 173.97Z"/><path fill="#BB4B26" transform="translate(-84 -91)" d="M512.683 226.401C516.949 228.162 517.329 229.941 520.475 232.556C530.381 248.134 534.085 249.783 545.694 262.775C569.626 289.56 610.557 326.4 646.941 334.575C661.536 337.724 676.783 334.972 689.355 326.921C698.835 320.889 707.078 310.321 710.277 299.521C712.847 293.122 713.266 288.776 714.059 282.041C718.213 287.678 715.071 304.607 712.569 310.739C707.647 322.801 697.821 332.834 686.139 338.21C667.613 346.736 648.535 345.657 630.042 337.846C586.266 320.565 531.254 269.515 512.683 226.401Z"/><path fill="#FEFDFD" transform="translate(-84 -91)" d="M519.506 173.97C520.706 171.349 523.467 170.439 526.228 169.403C554.212 158.897 587.875 167.708 613.963 179.576C649.05 195.538 698.524 237.236 711.537 273.741C712.52 276.462 713.362 279.233 714.059 282.041C713.266 288.776 712.847 293.122 710.277 299.521C709.448 295.495 711.496 284.439 709.359 278.267C698.201 246.048 658.845 211.902 630.343 195.428C595.713 175.411 558.506 163.746 519.506 173.97Z"/><path fill="#BB4B26" transform="translate(-84 -91)" d="M633.056 259.391C640.736 259.473 669.246 267.344 673.116 273.84C671.115 273.474 668.968 272.687 667.039 272.01C656.493 268.305 645.837 265.179 635.05 262.28C633.56 261.879 633.505 260.679 633.056 259.391Z"/><path fill="#FAE9E1" transform="translate(-84 -91)" d="M545.725 249.845C568.419 258.891 583.062 262.431 607.61 264.523C616.675 265.295 634.135 266.626 642.218 268.53C639.695 269.227 630.477 268.106 627.407 267.817C608.714 266.057 589.566 264.682 571.342 259.934C566.823 258.757 547.659 253.155 545.725 249.845Z"/><path fill="#D65E33" transform="translate(-84 -91)" d="M265.707 308.888C262.49 291.144 269.064 275.551 278.761 260.988C305.922 220.198 352.395 186.19 400.743 176.304C420.563 172.252 440.865 172.858 458.115 184.384L459.4 185.329L459.253 186.19C452.708 189.916 449.864 191.834 444.899 197.414C425.583 195.365 418.666 204.611 409.91 219.177C388.86 222.344 381.029 226.579 372.459 247.105C357.516 251.965 348.23 257.363 342.556 272.811C324.139 275.546 302.785 281.801 286.713 291.306C303.243 286.439 314.589 283.725 331.557 282.161C363.207 277.138 382.478 276.557 413.76 267.872C434.847 258.806 439.881 258.315 457.908 243.465C460.97 239.99 466.383 235.165 469.927 231.897C449.699 273.392 414.75 307.701 374.994 330.535C349.014 345.457 321.437 359.718 292.138 344.317C279.804 337.833 271.115 326.576 266.761 313.47L266.617 313.031L265.707 308.888Z"/><path fill="#BB4B26" transform="translate(-84 -91)" d="M469.927 231.897C449.699 273.392 414.75 307.701 374.994 330.535C349.014 345.457 321.437 359.718 292.138 344.317C279.804 337.833 271.115 326.576 266.761 313.47L266.617 313.031C269.429 314.565 274.432 321.678 277.139 324.183C319.348 363.135 380.775 321.409 415.286 291.49C427.738 280.695 439.268 268.647 450.074 256.229C452.485 253.459 458.683 247.138 457.908 243.465C460.97 239.99 466.383 235.165 469.927 231.897Z"/><path fill="#FEFDFD" transform="translate(-84 -91)" d="M265.707 308.888C262.49 291.144 269.064 275.551 278.761 260.988C305.922 220.198 352.395 186.19 400.743 176.304C420.563 172.252 440.865 172.858 458.115 184.384C453.3 184.654 448.194 181.615 443.683 181.174C392.06 176.125 339.715 203.212 304.011 238.879C287.372 255.501 272.457 274.239 266.932 297.061C266.206 300.329 267.103 305.936 265.707 308.888Z"/><path fill="#FEFDFD" transform="translate(-84 -91)" d="M413.76 267.872C407.432 273.425 340.954 284.149 331.756 282.651L331.557 282.161C363.207 277.138 382.478 276.557 413.76 267.872Z"/><path fill="#F4B965" transform="translate(-84 -91)" d="M415.39 382.133C407.581 370.621 409.85 355.052 420.62 346.248C431.391 337.445 447.1 338.319 456.827 348.262C466.555 358.206 467.084 373.93 458.046 384.505C454.414 388.754 449.548 391.765 444.124 393.118C433.19 395.844 421.716 391.458 415.39 382.133Z"/><path fill="#FEFDFD" transform="translate(-84 -91)" d="M415.39 382.133C407.581 370.621 409.85 355.052 420.62 346.248C431.391 337.445 447.1 338.319 456.827 348.262C466.555 358.206 467.084 373.93 458.046 384.505C457.156 383.766 456.298 383.001 455.428 382.239C457.606 377.782 459.073 374.086 458.995 368.951C458.931 363.033 456.422 357.404 452.063 353.399C438.325 340.695 414.629 349.476 413.653 368.581C413.413 373.288 415.173 377.49 415.39 382.133Z"/><path fill="#FEFDFD" transform="translate(-84 -91)" d="M444.124 393.118C445.601 391.098 451.681 387.072 455.428 382.239C456.298 383.001 457.156 383.766 458.046 384.505C454.414 388.754 449.548 391.765 444.124 393.118Z"/><path fill="#51210B" transform="translate(-84 -91)" d="M431.552 356.097C453.164 350.123 458.864 382.957 436.123 385.238C433.284 386.716 429.161 386.447 426.797 384.131C426.064 382.061 426.077 383.053 426.575 381.057C422.425 375.993 421.099 370.974 423.349 364.776C425.162 358.615 425.522 358.344 431.552 356.097Z"/><path fill="#FEFDFD" transform="translate(-84 -91)" d="M423.349 364.776C425.162 358.615 425.522 358.344 431.552 356.097C438.936 363.838 430.597 372.11 423.349 364.776Z"/><path fill="#FADCA1" transform="translate(-84 -91)" d="M426.575 381.057C430.261 383.706 431.49 384.334 436.123 385.238C433.284 386.716 429.161 386.447 426.797 384.131C426.064 382.061 426.077 383.053 426.575 381.057Z"/><path fill="#D65E33" transform="translate(-84 -91)" d="M332.499 391.663C338.227 396.935 359.755 429.175 362.713 436.878C362.498 438.698 360.374 442.118 359.52 444.115C357.6 448.602 356.576 451.215 355.839 456.063C356.026 458.414 355.815 463.714 355.789 466.283C351.562 462.399 343.058 456.856 338.03 453.013C326.101 443.944 315.205 433.591 305.539 422.141C303.368 420.083 298.462 416.344 299.524 413.193L301.368 412.316C308.796 408.889 314.369 406.27 320.966 401.144C324.537 398.37 329.017 393.873 332.499 391.663Z"/><path fill="#BB4B26" transform="translate(-84 -91)" d="M305.539 422.141C317.773 425.982 348.805 455.912 355.839 456.063C356.026 458.414 355.815 463.714 355.789 466.283C351.562 462.399 343.058 456.856 338.03 453.013C326.101 443.944 315.205 433.591 305.539 422.141Z"/><path fill="#FEFDFD" transform="translate(-84 -91)" d="M332.499 391.663C338.227 396.935 359.755 429.175 362.713 436.878C359.312 436.111 350.985 423.133 348.48 419.633C342.851 411.836 337.147 404.094 331.369 396.408C325.33 401.262 309.354 412.799 301.368 412.316C308.796 408.889 314.369 406.27 320.966 401.144C324.537 398.37 329.017 393.873 332.499 391.663Z"/><path fill="#D65E33" transform="translate(-84 -91)" d="M637.907 384.96C646.689 388.295 654.434 394.358 661.979 399.902C665.175 401.932 668.736 404.089 671.831 406.215C673.502 407.553 675.086 408.745 676.587 410.275C658.957 424.895 640.753 438.086 623.141 453.401L622.731 446.655C621.463 440.736 619.461 436.223 616.713 430.875C615.463 428.443 612.456 425.085 612.342 423.414C615.944 411.339 628.899 394.011 637.907 384.96Z"/><path fill="#BB4B26" transform="translate(-84 -91)" d="M671.831 406.215C673.502 407.553 675.086 408.745 676.587 410.275C658.957 424.895 640.753 438.086 623.141 453.401L622.731 446.655C625.881 444.744 641.91 429.592 646.508 425.682C654.904 418.545 663.664 412.832 671.831 406.215Z"/><path fill="#FEFDFD" transform="translate(-84 -91)" d="M637.907 384.96C646.689 388.295 654.434 394.358 661.979 399.902C656.974 399.574 645.726 392.411 640.012 390.024C635.203 394.024 634.414 395.585 630.779 399.442C627.179 403.261 614.824 422.784 612.342 423.414C615.944 411.339 628.899 394.011 637.907 384.96Z"/><path fill="#D65E33" transform="translate(-84 -91)" d="M632.403 495.246C658.72 488.69 685.294 483.157 711.452 476.003C719.47 473.81 727.284 470.793 735.384 468.891C740.174 467.766 742.515 468.808 746.456 471.41C749.466 474.625 751.094 478.092 751.816 482.44C751.512 484.907 751.457 487.471 749.344 489.163C742.398 494.722 679.266 501.68 669.27 500.029C665.424 499.393 661.516 498.335 657.614 498.245C647.946 499.425 638.46 502.076 628.923 503.214C621.44 504.107 613.056 503.526 605.371 504.361L604.652 504.442C613.645 500.649 622.924 497.574 632.403 495.246Z"/><path fill="#BB4B26" transform="translate(-84 -91)" d="M751.816 482.44C751.512 484.907 751.457 487.471 749.344 489.163C742.398 494.722 679.266 501.68 669.27 500.029C665.424 499.393 661.516 498.335 657.614 498.245C660.008 497.461 664.173 496.776 666.737 496.452C692.318 493.215 718.897 491.961 743.734 484.716C746.462 483.921 749.091 483.197 751.816 482.44Z"/><path fill="#FEFDFD" transform="translate(-84 -91)" d="M632.403 495.246C658.72 488.69 685.294 483.157 711.452 476.003C719.47 473.81 727.284 470.793 735.384 468.891C740.174 467.766 742.515 468.808 746.456 471.41C743.723 472.67 733.555 473.281 730.055 474.23C715.802 478.093 641.746 496.774 632.403 495.246Z"/><defs><linearGradient id="gradient_1" gradientUnits="userSpaceOnUse" x1="679.70422" y1="466.42743" x2="673.37213" y2="451.13434"><stop offset="0" stop-color="#B24722"/><stop offset="1" stop-color="#FB7040"/></linearGradient></defs><path fill="url(#gradient_1)" transform="translate(-84 -91)" d="M725.951 424.878C729.594 425.856 731.4 426.975 734.49 428.883C736.533 430.343 742.931 436.113 739.241 438.952C726.222 448.969 708.92 453.251 694.128 460.15C670.28 471.272 641.073 486.17 614.23 488.241C616.747 485.258 619.589 481.713 622.195 478.874C624.095 478.269 627.232 477.164 629.085 476.794C667.605 465.216 692.198 442.775 725.951 424.878Z"/><path fill="#FEFDFD" transform="translate(-84 -91)" d="M725.951 424.878C729.594 425.856 731.4 426.975 734.49 428.883C730.576 430.436 724.898 428.659 720.472 430.911C707.798 437.36 695.919 445.164 683.773 452.525C670.246 460.671 656.098 467.739 641.461 473.663C639.022 474.648 631.472 477.797 629.085 476.794C667.605 465.216 692.198 442.775 725.951 424.878Z"/><path fill="#D65E33" transform="translate(-84 -91)" d="M249.251 446.906C236.034 442.773 249.629 432.864 255.311 429.09C257.273 429.038 259.044 428.902 260.789 429.809C270.287 434.743 278.983 441.047 288.324 446.4L329.003 469.443C335.861 473.334 349.181 480.755 355.36 485.558C360.562 488.861 365.301 492.715 370.157 496.508C357.527 492.744 349.97 488.99 338.139 484.362C308.322 472.697 278.825 458.906 249.251 446.906Z"/><path fill="#BB4B26" transform="translate(-84 -91)" d="M249.251 446.906C252.896 444.86 256.209 445.335 260.136 446.589C284.294 454.302 306.527 466.946 330.1 475.964C331.427 476.471 334.977 476.201 336.533 476.113C340.97 478.354 351.39 484.968 355.36 485.558C360.562 488.861 365.301 492.715 370.157 496.508C357.527 492.744 349.97 488.99 338.139 484.362C308.322 472.697 278.825 458.906 249.251 446.906Z"/><path fill="#FEFDFD" transform="translate(-84 -91)" d="M255.311 429.09C257.273 429.038 259.044 428.902 260.789 429.809C270.287 434.743 278.983 441.047 288.324 446.4L329.003 469.443C335.861 473.334 349.181 480.755 355.36 485.558C351.39 484.968 340.97 478.354 336.533 476.113C333.741 474.205 330.575 472.415 327.638 470.722C307.901 459.347 287.686 448.836 268.524 436.478C264.428 433.836 259.14 432.005 255.311 429.09Z"/><path fill="#D65E33" transform="translate(-84 -91)" d="M271.303 343.765C286.645 356.334 295.07 360.972 314.536 363.063C316.853 363.164 316.299 362.813 317.957 363.958C321.021 372.391 296.398 403.509 280.692 392.22C265.563 377.507 264.923 362.834 271.303 343.765Z"/><path fill="#BB4B26" transform="translate(-84 -91)" d="M314.536 363.063C316.853 363.164 316.299 362.813 317.957 363.958C321.021 372.391 296.398 403.509 280.692 392.22C294.046 386.077 308.823 377.932 314.536 363.063Z"/><path fill="#D65E33" transform="translate(-84 -91)" d="M660.038 355.897C671.674 355.064 680.416 353.936 691.282 349.32C695.029 347.729 704.306 340.105 706.868 340.059C710.853 350.633 711.525 359.47 706.998 370.213C706.241 372.008 702.727 377.952 701.434 379.152C695.868 388.494 686.623 392.691 677.011 386.056C666.81 379.016 662.305 367.581 660.038 355.897Z"/><path fill="#BB4B26" transform="translate(-84 -91)" d="M660.038 355.897C671.674 355.064 680.416 353.936 691.282 349.32C695.029 347.729 704.306 340.105 706.868 340.059C697.259 355.001 682.202 356.426 666.248 359.051C668.521 367.45 671.053 374.643 677.595 380.78C686.256 388.906 692.98 381.383 701.434 379.152C695.868 388.494 686.623 392.691 677.011 386.056C666.81 379.016 662.305 367.581 660.038 355.897Z"/><path fill="#F4B965" transform="translate(-84 -91)" d="M543.033 376.527C531.338 369.879 520.473 369.1 530.728 350.235C533.491 345.151 539.707 341.56 545.46 340.43C551.245 339.282 557.248 340.53 562.097 343.888C567.668 347.747 571.406 353.727 572.434 360.426C573.401 366.81 571.776 373.317 567.919 378.496C566.203 380.806 563.56 383.42 561.104 384.948C560.121 386.021 560.555 385.636 559.01 386.147C554.234 385.391 547.071 379.554 543.033 376.527Z"/><path fill="#FEFDFD" transform="translate(-84 -91)" d="M543.033 376.527C531.338 369.879 520.473 369.1 530.728 350.235C533.491 345.151 539.707 341.56 545.46 340.43C551.245 339.282 557.248 340.53 562.097 343.888C567.668 347.747 571.406 353.727 572.434 360.426C573.401 366.81 571.776 373.317 567.919 378.496C566.203 380.806 563.56 383.42 561.104 384.948C561.374 380.361 568.754 375.383 570.06 370.118C572.456 360.459 568.534 350.852 558.829 347.47C546.593 343.207 532.276 356.014 539.117 368.196C540.357 371.672 541.637 373.371 544.064 376.154L543.033 376.527Z"/><path fill="#51210B" transform="translate(-84 -91)" d="M548.243 354.828C554.245 352.307 559.321 353.611 561.98 359.937C563.62 363.891 563.56 368.346 561.815 372.254C558.193 380.284 550.804 380.349 544.064 376.154C541.637 373.371 540.357 371.672 539.117 368.196C539.742 365.051 539.432 364.447 541.035 361.657C542.291 357.204 543.731 355.563 548.243 354.828Z"/><path fill="#FEFDFD" transform="translate(-84 -91)" d="M541.035 361.657C542.291 357.204 543.731 355.563 548.243 354.828C552.913 362.641 548.265 367.89 541.035 361.657Z"/><path fill="#D65E33" transform="translate(-84 -91)" d="M238.113 476.756C239.303 475.72 240.528 474.622 241.746 473.63C251.951 476.465 262.549 480.337 272.595 483.872C281.118 486.871 290.136 489.706 298.545 492.781C302.9 494.145 307.266 495.475 311.641 496.773C318.091 498.767 326.422 501.024 332.992 502.573C328.018 503.058 323.092 503.513 318.086 503.556C305.154 506.333 252.296 498.864 239.91 493.382C232.969 490.948 235.514 481.553 238.113 476.756Z"/><path fill="#BB4B26" transform="translate(-84 -91)" d="M239.91 493.382C253.938 490.579 291.681 500.901 307.406 502.941C311.649 503.491 314.27 503.272 318.086 503.556C305.154 506.333 252.296 498.864 239.91 493.382Z"/><path fill="#FEFDFD" transform="translate(-84 -91)" d="M238.113 476.756C239.303 475.72 240.528 474.622 241.746 473.63C251.951 476.465 262.549 480.337 272.595 483.872C281.118 486.871 290.136 489.706 298.545 492.781L295.806 493.348C284.663 489.337 270.136 485.76 258.594 482.166C252.172 480.166 244.782 478.885 238.113 476.756Z"/><path fill="#FAE9E1" transform="translate(-84 -91)" d="M298.545 492.781C302.9 494.145 307.266 495.475 311.641 496.773C308.181 497.187 299.516 494.364 295.806 493.348L298.545 492.781Z"/><path fill="#D65E33" transform="translate(-84 -91)" d="M754.073 354.692C762.938 370.514 765.176 389.203 760.296 406.671C757.724 416.001 754.31 421.981 748.212 429.326C746.282 426.698 739.572 418.728 738.773 416.96C739.254 415.974 738.926 416.269 739.533 415.875C750.965 405.779 752.329 396.861 755.195 382.428C755.958 371.431 755.83 365.422 754.073 354.692Z"/><path fill="#FEFDFD" transform="translate(-84 -91)" d="M755.195 382.428C757.956 390.218 751.343 417.05 739.533 415.875C750.965 405.779 752.329 396.861 755.195 382.428Z"/><path fill="#D65E33" transform="translate(-84 -91)" d="M236.809 434.913C229.522 424.093 223.189 416.894 219.829 403.421C216.166 388.735 220.322 371.241 227.993 358.503C226.774 364.454 225.74 371.834 225.444 377.909C226.487 396.47 228.463 401.902 238.374 417.908C238.888 418.278 243.024 423.686 243.648 424.485C241.308 427.72 238.982 431.524 236.809 434.913Z"/><path fill="#F4B965" transform="translate(-84 -91)" d="M226.995 401.681C226.069 396.612 223.057 381.908 225.444 377.909C226.487 396.47 228.463 401.902 238.374 417.908C233.011 416.008 229.381 406.663 226.995 401.681Z"/><path fill="#EB7A48" transform="translate(-84 -91)" d="M226.995 401.681C229.381 406.663 233.011 416.008 238.374 417.908C231.703 422.127 228.165 413.007 226.158 408.691C226.37 406.133 226.556 404.248 226.995 401.681Z"/><path fill="#D65E33" transform="translate(-84 -91)" d="M780.427 426.869C780.544 446.713 772.878 463.683 759.807 478.286C758.76 472.77 754.206 465.277 754.371 463.605L755.267 462.878C762.08 456.778 764.687 453.849 770.203 446.568C774.616 439.559 777.254 434.518 780.427 426.869Z"/><path fill="#FAE9E1" transform="translate(-84 -91)" d="M770.203 446.568C770.045 450.915 759.573 462.692 755.267 462.878C762.08 456.778 764.687 453.849 770.203 446.568Z"/><path fill="#D65E33" transform="translate(-84 -91)" d="M201.737 432.618C208.267 443.873 214.043 454.147 223.489 463.255C225.112 464.819 227.465 467.235 228.854 468.958L228.921 469.407C226.989 473.708 226.456 475.673 225.478 480.233C215.698 471.108 207.293 456.596 204.655 443.541C203.382 440.469 202.502 435.96 201.737 432.618Z"/><path fill="#EB7A48" transform="translate(-84 -91)" d="M201.737 432.618C208.267 443.873 214.043 454.147 223.489 463.255C225.112 464.819 227.465 467.235 228.854 468.958C221.033 471.888 210.409 448.289 204.655 443.541C203.382 440.469 202.502 435.96 201.737 432.618Z"/><path fill="#EB7A48" transform="translate(-84 -91)" d="M507.298 216.644C512.418 221.623 516.713 226.887 521.598 231.882L520.475 232.556C517.329 229.941 516.949 228.162 512.683 226.401C510.819 223.187 509.023 219.934 507.298 216.644Z"/><path fill="#1E4556" transform="translate(-84 -91)" d="M328.022 514.268C336.364 515.993 352.058 515.809 362.367 517.374C373.437 519.055 383.484 523.013 392.965 524.579C395.462 525.733 396.131 526.217 398.359 527.864C400.27 529.394 402.103 530.811 403.893 532.488C408.666 532.504 416.17 532.265 420.852 531.553L426.345 531.706C428.072 531.646 429.798 531.565 431.524 531.463C436.146 531.541 442.203 531.121 446.922 530.931L450.918 530.982C458.462 530.935 471.079 530.226 478.546 529.531L485.176 529.431C487.404 529.524 490.418 529.326 492.678 529.166C506.451 528.193 520.934 528.845 534.582 526.962C538.643 527.27 540.333 527.326 544.376 527.026C546.859 527.036 548.571 526.777 551.013 526.469L558.355 526.454L560.881 526.045C568.029 526.205 575.862 526.548 582.893 525.516L649.388 524.245C655.748 524.106 662.103 523.828 668.45 523.413C673.054 523.5 677.85 523.665 682.436 523.539L686.301 523.184C691.657 523.366 702.402 523.029 707.757 522.123C715.675 522.772 732.72 520.114 742.027 519.927C776.217 519.188 810.419 519.218 844.608 520.016C855.183 533.965 873.14 556.389 881.852 570.531C872.579 607.122 863.584 643.783 854.869 680.511L823.691 805.146C818.364 826.987 813.447 850.878 807.876 872.33C682.996 849.554 556.129 839.494 429.22 842.303C368.114 843.928 307.114 848.35 246.413 855.555C229.948 857.486 213.523 859.74 197.147 862.316C195.021 862.669 190.208 863.965 188.672 863.384C193.572 860.589 241.441 850.743 247.676 849.681C283.1 843.646 320.95 839.348 356.735 836.134C475.106 825.48 594.232 826.354 712.434 838.742C730.166 840.59 747.867 842.738 765.527 845.184C774.349 846.356 784.344 847.461 793.003 849.003C795.092 833.946 798.592 816.569 801.343 801.492C806.53 772.729 811.909 744.001 817.48 715.309C826.408 668.709 834.33 621.629 843.878 575.167C837.201 564.587 830.243 554.355 823.428 543.889L352.426 544.19L215.601 543.096L180.499 542.839C175.456 542.787 167.471 542.405 162.75 542.649L155.807 542.109C162.552 540.97 179.494 540.336 186.637 539.952L242.009 537.104C250.306 536.69 259.372 536.705 267.502 535.299C272.166 535.41 276.389 535.564 281.06 535.237L289.56 534.989C299.728 535.072 310.327 534.705 320.523 534.491C325.62 534.499 331.306 534.674 336.314 534.042C335.518 530.659 332.218 522.135 330.909 518.545C329.623 516.998 329.069 516.008 328.022 514.268Z"/><path fill="#BB4B26" transform="translate(-84 -91)" d="M328.022 514.268C336.364 515.993 352.058 515.809 362.367 517.374C373.437 519.055 383.484 523.013 392.965 524.579C395.462 525.733 396.131 526.217 398.359 527.864C400.27 529.394 402.103 530.811 403.893 532.488L336.314 534.042C335.518 530.659 332.218 522.135 330.909 518.545C329.623 516.998 329.069 516.008 328.022 514.268Z"/><path fill="#D65E33" transform="translate(-84 -91)" d="M328.022 514.268C336.364 515.993 352.058 515.809 362.367 517.374C373.437 519.055 383.484 523.013 392.965 524.579C395.462 525.733 396.131 526.217 398.359 527.864C395.167 529.154 384.144 526.928 380.207 526.284C367.061 524.132 350.788 525.968 338.247 524.497C335.583 521.568 334.455 520.3 330.909 518.545C329.623 516.998 329.069 516.008 328.022 514.268Z"/><path fill="#1E4556" transform="translate(-84 -91)" d="M602.268 667.229C608.4 666.77 632.713 667.223 638.824 668.131C645.011 691.219 650.93 714.378 656.58 737.603C663.619 716.674 671.267 690.025 676.871 668.527C689.211 668.956 701.131 668.725 713.514 669.627C720.29 688.65 725.371 708.223 731.446 727.47C732.714 731.488 734.008 735.511 735.588 739.418C738.41 731.273 741.189 721.135 743.654 712.759C747.837 698.671 751.937 684.559 755.954 670.423C770.204 669.575 787.859 670.073 802.26 670.16L781.474 748.321C774.165 774.997 766.036 802.244 759.175 828.914C745.227 827.839 731.704 825.788 717.495 824.93C712.575 805.045 706.235 785.577 700.475 765.932C699.169 761.476 697.807 757.028 697.046 752.44C691.803 775.269 683.68 798.496 678.642 821.086C664.9 820.282 649.59 818.896 636.065 818.416C631.266 803.679 627.948 789.075 623.556 774.363C612.639 738.85 602.04 703.24 591.762 667.536C595.266 667.52 598.769 667.418 602.268 667.229Z"/><path fill="#1E4556" transform="translate(-84 -91)" d="M246.7 667.206C254.767 666.603 262.879 667.21 270.767 669.007C290.082 673.504 304.757 684.177 315.257 700.879C302.979 709.375 290.631 720.592 278.608 729.874C277.404 728.269 276.038 726.774 274.587 725.404C259.318 710.986 238.197 711.728 224.106 727.418C216.172 736.252 212.73 747.843 213.16 759.639C213.452 767.668 216.681 776.057 222.768 781.443C229.093 786.898 238.086 788.409 246.205 787.764C262.307 786.485 270.663 777.509 280.5 766.035C288.629 772.318 298.735 782.357 306.455 789.682C308.698 791.748 311.582 793.839 312.646 796.477C312.407 800.123 307.105 803.771 304.398 806.402C286.851 823.458 267.618 833.092 243.423 835.257C199.727 839.167 164.596 817.813 161.971 771.713C160.191 743.624 164.469 721.124 183.48 699.148C200.221 679.797 221.178 669.214 246.7 667.206Z"/><path fill="#1E4556" transform="translate(-84 -91)" d="M495.314 667.594L542.389 667.55C560.709 715.133 580.251 766.045 596.584 814.278C584.564 814.094 564.177 812.691 553.13 813.484C551.269 807.619 549.256 800.227 546.389 794.799C545.617 793.337 544.357 793.455 542.837 793.193C528.833 792.79 511.27 793.481 496.938 793.586C494.697 799.678 492.565 805.81 490.543 811.978C474.167 811.848 456.851 812.5 440.441 813.025C443.251 806.261 445.865 799.428 448.42 792.564C463.92 750.933 481.09 709.665 495.314 667.594ZM507.685 755.045C512.357 754.975 517.237 754.828 521.892 754.924L531.987 755.002C529.636 748.74 521.202 723.706 518.444 719.793L507.685 755.045Z"/><path fill="#1E4556" transform="translate(-84 -91)" d="M328.026 669.12C344.004 668.937 359.983 668.925 375.961 669.085C375.267 703.317 375.984 740.209 376.018 774.669C395.463 772.78 413.835 772.728 433.056 771.439C433.447 783.288 433.735 802.28 435.734 813.463L427.848 813.921C398.888 814.833 355.102 818.375 326.49 822.574C328.094 777.005 326.332 730.753 327.327 685.122C327.444 679.773 327.705 674.46 328.026 669.12Z"/><path fill="#D65E33" transform="translate(-84 -91)" d="M180.87 564.208C188.02 563.374 197.593 565.673 203.771 569.25C217.461 577.176 224.355 592.804 223.323 608.298C222.84 615.561 219.858 621.917 217.112 628.53C219.374 629.966 221.759 631.83 223.933 633.439C221.871 638.479 217.348 645.814 214.532 650.663C210.836 647.93 207.453 644.997 203.954 642.027L198.243 645.082C147.209 665.286 121.981 593.987 163.755 569.15C168.752 566.179 175.103 564.777 180.87 564.208ZM186.32 624.943L178.63 617.484C180.764 614.032 187.253 608.192 190.358 604.31C193.911 607.165 195.849 608.973 199.066 612.228C198.623 599.313 196.428 587.761 180.294 588.539C174.45 590.983 170.11 593.68 167.739 599.847C164.03 609.497 167.606 620.497 178.038 623.604C180.8 624.427 183.513 624.619 186.32 624.943Z"/><path fill="#D65E33" transform="translate(-84 -91)" d="M543.868 562.18C591.987 560.3 603.904 627.007 562.769 645.999C559.253 647.623 555.6 648.421 551.826 649.274C542.386 649.502 532.605 648.391 525.127 642.212C496.378 618.459 503.53 567.323 543.868 562.18ZM549.791 622.671C555.042 620.745 558.75 618.364 561.169 612.986C563.195 608.397 563.317 603.192 561.507 598.513C558.811 591.483 553.137 587.808 545.747 587.454C543.325 588.453 541.219 589.233 539.093 590.836C526.112 600.619 531.596 624.915 549.791 622.671Z"/><path fill="#D65E33" transform="translate(-84 -91)" d="M727.709 564.5C735.137 564.589 742.686 564.524 750.124 564.529C757.144 573.134 764.537 587.121 771.053 594.907C770.824 584.915 771.198 574.97 770.836 564.957L796.477 564.512C796.443 587.827 796.522 611.145 796.171 634.458C796.106 638.72 796.257 643.03 795.805 647.271C794.082 648.194 793.427 647.795 791.136 647.745L775.668 647.98C769.176 641.004 758.062 623.45 751.538 614.719C751.434 625.805 751.411 636.891 751.469 647.977C746.241 647.309 733.581 647.414 728.186 647.765C727.349 621.027 727.927 591.462 727.709 564.5Z"/><path fill="#D65E33" transform="translate(-84 -91)" d="M412.328 564.483C420.382 564.535 428.435 564.531 436.489 564.471C436.505 571.95 437.085 584.327 436.439 591.319C440.913 582.009 443.939 573.664 449.285 564.537C458.18 564.758 467.794 564.55 476.741 564.524C471.569 578.019 461.926 592.962 455.825 606.484C459.337 615.167 465.673 626.64 470.028 635.267C472.145 639.615 474.157 644.013 476.062 648.458L449.762 648.473C445.027 639.882 441.287 630.31 436.429 621.489C436.695 630.163 436.497 639.735 436.497 648.475L412.495 648.535L412.295 593.75C412.272 583.959 412.551 574.284 412.328 564.483Z"/><path fill="#D65E33" transform="translate(-84 -91)" d="M612.962 564.226C624.914 563.828 641.231 564.274 650.087 573.23C662.286 585.568 661.458 608.124 648.971 620C640.182 628.359 631.381 628.674 620.059 628.305L619.717 628.602L619.53 648.053C611.296 648.146 603.061 648.122 594.828 647.981C595.533 621.982 595.034 590.609 594.545 564.517C600.779 564.663 606.734 564.433 612.962 564.226ZM620.007 604.956C624.468 604.584 627.499 604.805 631.252 602.32C632.936 599.972 633.206 598.488 634.003 595.721C630.514 588.686 627.483 588.651 619.875 588.868L620.007 604.956Z"/><path fill="#D65E33" transform="translate(-84 -91)" d="M273.504 564.573C281.767 564.804 290.152 564.609 298.428 564.495C298.158 572.077 298.01 579.663 297.985 587.25C297.792 603.082 301.036 626.93 289.059 639.271C276.406 652.309 252.404 652.205 239.458 639.572C236.302 636.536 233.954 632.759 232.629 628.584C229.342 618.287 230.048 602.77 230.083 591.711L230.031 564.551C237.574 564.92 247.178 564.328 254.321 565.039C253.741 580.719 253.813 598.219 254.516 613.943C254.79 618.829 258.509 624.385 263.743 624.613C276.552 625.17 273.76 603.361 273.681 595.339L273.504 564.573Z"/><path fill="#D65E33" transform="translate(-84 -91)" d="M664.869 564.495C681.422 565.015 701.583 564.695 718.215 564.499C717.968 572.208 718.072 580.425 718.106 588.158C713.411 588.001 692.575 587.135 689.411 588.272C689.715 590.586 688.911 590.656 689.621 593.41C691.674 595.04 712.757 594.062 716.452 593.909C716.617 601.102 716.507 608.704 716.519 615.929L689.534 615.991C689.547 618.065 689.712 619.974 689.869 622.036L689.968 622.262C692.013 623.474 714.932 623.061 718.938 623.068L718.84 647.992L664.472 647.993C665.215 639.915 664.814 626.095 664.808 617.399L664.869 564.495Z"/><path fill="#D65E33" transform="translate(-84 -91)" d="M372.598 562.636C384.921 561.243 398.95 564.723 406.218 575.518C401.785 582.943 397.202 588.656 391.697 595.209C387.476 592.05 383.658 589.41 378.237 588.77C358.263 586.413 358.867 622.282 376.522 623.269C381.724 623.56 388.107 618.744 391.616 615.016C396.056 619.924 399.326 624.111 402.839 629.705C404.077 631.908 405.347 634.457 406.531 636.718C400 642.898 394.174 646.831 385.126 648.617C375.312 650.602 365.114 648.501 356.884 642.798C347.053 636.051 340.37 625.612 338.358 613.859C334.065 590.097 348.281 566.958 372.598 562.636Z"/><path fill="#D65E33" transform="translate(-84 -91)" d="M307.009 564.487C314.772 564.736 323.033 564.547 330.839 564.491C330.578 590.747 330.105 620.144 330.861 646.331L330.728 647.405C329.231 648.591 310.6 648.239 307.077 648.379C307.775 621.368 307.135 591.586 307.009 564.487Z"/><path fill="#FEFDFD" fill-opacity="0.011764706" transform="translate(-84 -91)" d="M320.616 450.341C324.388 453.32 328.077 456.402 331.679 459.583C329.657 459.269 321.309 453.585 318.989 452.066L320.616 450.341Z"/><path fill="#92979A" fill-opacity="0.70588237" transform="translate(-84 -91)" d="M162.75 542.649C159.947 542.944 154.12 543.401 151.58 542.182C153.132 542.093 154.136 542.058 155.807 542.109L162.75 542.649Z"/></g></svg>